<svg width="243" height="93" viewBox="0 0 243 93" fill="none" xmlns="http://www.w3.org/2000/svg">
<path d="M35.392 47.078C35.039 47.107 34.839 47.272 34.79 47.573C34.732 47.944 34.51 48.105 34.125 48.053C34.08 48.046 34.078 48.035 34.121 48.019C34.295 47.941 34.263 47.905 34.023 47.913C32.781 47.952 31.708 48.373 30.806 49.179C30.742 49.237 30.712 49.323 30.728 49.407C30.741 49.469 30.734 49.528 30.709 49.587C30.661 49.694 30.582 49.757 30.471 49.776C29.999 49.869 29.562 50.012 29.16 50.203C27.346 51.071 25.468 51.833 23.75 52.737C22.666 53.303 21.603 53.77 20.561 54.139C19.565 54.495 18.7 54.945 17.969 55.488C17.18 56.078 16.319 56.563 15.387 56.944C15.352 56.957 15.323 56.948 15.3 56.92C15.267 56.878 15.247 56.83 15.241 56.779C15.229 56.692 15.19 56.677 15.125 56.735C14.451 57.346 13.602 58.123 12.616 57.875C12.465 57.837 12.316 57.847 12.169 57.905C11.892 58.019 11.589 58.002 11.262 57.857C12.349 54.744 14.482 48.925 17.659 40.399C18.416 38.371 19.071 35.871 20.586 34.421C22.507 32.575 24.854 32.035 27.627 32.794C28.759 33.105 29.698 33.681 30.442 34.523C30.92 35.066 31.393 36.012 31.859 37.361C32.982 40.617 34.159 43.854 35.392 47.078Z" fill="#2FBEE3" fill-opacity="0.565"/>
<path d="M179.706 77.677C179.696 75.034 179.618 72.399 179.473 69.771C179.447 69.25 179.404 68.706 179.343 68.135C179.281 67.534 179.269 66.92 179.308 66.291C179.574 62.13 179.577 59.198 179.318 57.492C179.244 56.978 179.24 56.417 179.308 55.808C179.418 54.857 179.473 54.372 179.473 54.352C179.493 52.411 179.455 50.472 179.362 48.533C179.358 48.501 179.343 48.47 179.313 48.441C179.281 48.409 179.251 48.372 179.22 48.33C179.207 48.308 179.201 48.283 179.201 48.257C179.259 46.866 179.31 45.473 179.352 44.078C179.381 43.088 179.022 42.122 178.978 41.079C178.978 41.079 178.978 41.078 178.978 41.074C178.978 41.074 178.979 41.074 178.983 41.074C178.986 41.074 178.988 41.076 178.988 41.079C178.991 41.344 178.877 41.501 178.643 41.55C178.523 41.578 178.475 41.654 178.498 41.773C178.685 42.818 178.368 43.665 177.546 44.312C176.766 44.92 176.527 45.715 176.828 46.699C176.879 46.863 176.875 47.037 176.819 47.195C176.521 48.026 176.227 48.815 175.935 49.563C175.832 49.818 175.775 50.08 175.766 50.348C175.755 50.51 175.707 50.659 175.619 50.796C175.086 51.62 174.473 52.379 173.78 53.072C173.416 53.435 173.328 53.925 172.961 54.298C172.681 54.578 172.449 54.903 172.261 55.275C171.818 56.158 171.538 57.108 171.422 58.123C171.354 58.745 170.985 59.23 170.713 59.779C170.694 59.817 170.666 59.837 170.631 59.837C170.611 59.837 170.592 59.834 170.573 59.827C170.523 59.81 170.483 59.822 170.451 59.86C170.033 60.35 169.727 60.932 169.533 61.607C169.295 62.433 168.748 62.886 167.894 62.967C167.819 62.974 167.763 62.945 167.724 62.879C167.698 62.834 167.666 62.797 167.626 62.768C167.52 62.678 167.469 62.702 167.476 62.84C167.502 63.547 167.355 64.133 167.034 64.602C166.953 56.028 166.908 47.479 166.898 38.953C166.883 31.382 177.255 30.159 179.498 37.002C179.973 38.459 179.784 41.511 179.789 43.481C179.818 54.88 179.79 66.279 179.706 77.677Z" fill="#2FBEE3"/>
<path d="M143.104 33.925L140.488 34.197C140.39 34.21 140.302 34.265 140.25 34.348C140.217 34.399 140.191 34.456 140.172 34.517C140.108 34.695 139.986 34.817 139.808 34.881C138.569 35.322 137.606 35.881 136.921 36.561C135.859 37.612 134.717 38.553 133.494 39.386C133.423 39.433 133.381 39.492 133.368 39.56C133.348 39.66 133.299 39.742 133.217 39.803C132.493 40.356 131.762 40.899 131.023 41.434C130.213 42.022 129.509 42.621 128.912 43.229C128.24 43.922 127.504 44.499 126.705 44.961C126.277 45.204 126.074 45.592 125.646 45.84C124.653 46.423 123.737 47.053 122.9 47.733C122.225 48.277 121.798 49.028 121.08 49.524C120.339 50.035 119.681 50.749 119.105 51.663C119.03 51.786 118.927 51.891 118.794 51.974C118.697 52.04 118.595 52.098 118.488 52.149C118.33 52.233 118.197 52.335 118.09 52.455C117.3 53.36 116.429 54.18 115.475 54.911C115.033 55.25 114.805 55.769 114.266 55.886C114.107 55.922 113.969 55.996 113.848 56.109C113.535 56.414 113.229 56.645 112.932 56.804C111.757 57.428 110.878 58.05 110.296 58.667C110.283 58.68 110.269 58.682 110.253 58.672C110.245 58.668 110.239 58.665 110.233 58.662C110.206 58.656 110.202 58.646 110.219 58.633C110.432 58.481 110.608 58.292 110.748 58.065C110.923 57.771 110.873 57.727 110.602 57.934C110.414 58.076 110.223 58.218 110.029 58.361C109.845 58.497 109.666 58.657 109.49 58.841C109.287 59.055 109.037 59.204 108.743 59.288C108.594 59.334 108.477 59.419 108.394 59.545L108.112 59.982C107.941 60.244 107.86 60.219 107.869 59.904C107.883 59.542 107.871 59.198 107.836 58.871C107.793 58.463 107.703 58.454 107.564 58.841C107.554 58.874 107.549 58.908 107.549 58.944C107.549 59.102 107.534 59.105 107.506 58.953C107.5 58.921 107.502 58.887 107.515 58.852C107.534 58.78 107.534 58.709 107.515 58.637C107.48 58.521 107.421 58.509 107.34 58.598C107.246 58.709 107.166 58.71 107.097 58.604C107.58 54.34 108.897 50.485 111.048 47.039C117.983 35.935 130.475 31.532 143.104 33.925Z" fill="#08344F"/>
<path d="M78.367 33.479C78.308 33.728 78.096 33.841 77.727 33.819C77.581 33.808 77.469 33.868 77.392 33.993C77.291 34.152 77.153 34.204 76.974 34.149C76.822 34.103 76.721 34.157 76.669 34.309C76.584 34.571 76.405 34.753 76.13 34.852C75.991 34.901 75.873 34.981 75.775 35.09C75.326 35.601 74.791 36.105 74.169 36.6C72.163 38.201 70.306 39.548 68.597 40.638C68.491 40.705 68.404 40.789 68.335 40.89C68.238 41.032 68.112 41.134 67.952 41.195C67.393 41.403 66.939 41.801 66.593 42.389C66.512 42.529 66.387 42.637 66.239 42.7C65.973 42.81 65.7 42.875 65.418 42.894C65.244 42.903 65.088 42.959 64.948 43.059C63.695 43.969 62.445 44.808 61.197 45.577C60.973 45.72 60.727 45.817 60.459 45.87C60.08 45.947 59.747 46.062 59.459 46.214C58.45 46.741 57.465 47.266 56.504 47.791C56.076 48.023 55.573 48.133 54.994 48.115C54.837 48.114 54.683 48.165 54.557 48.262C53.99 48.701 53.393 49.027 52.762 49.237C57.809 39.541 67.55 33.745 78.367 33.479Z" fill="#011524"/>
<path d="M78.367 33.479C81.269 33.372 84.134 33.647 86.962 34.305C90.433 35.109 93.442 36.432 95.984 38.274C95.175 38.763 94.309 39.316 93.387 39.934C92.783 40.338 92.249 40.791 91.786 41.292C91.297 41.826 90.827 42.368 90.374 42.918C89.316 44.206 88.282 45.429 87.272 46.588C87.172 46.697 87.083 46.814 87.005 46.937C86.88 47.131 86.693 47.203 86.448 47.156C86.3 47.128 86.149 47.177 86.05 47.287C85.772 47.585 85.308 47.864 84.661 48.126C82.083 47.145 79.57 46.799 77.125 47.087C71.725 47.728 67.782 50.416 65.298 55.153C63.794 58.017 63.181 61.092 63.463 64.379C63.23 64.457 63.047 64.633 62.914 64.908C62.812 65.121 62.648 65.188 62.424 65.107C62.12 64.997 61.915 65.086 61.808 65.374C61.756 65.517 61.658 65.61 61.511 65.656C59.296 66.358 57.11 67.15 54.955 68.034C54.703 68.137 54.442 68.214 54.174 68.262C53.779 68.336 53.523 68.412 53.407 68.489C52.896 68.848 52.354 69.154 51.782 69.408C51.636 69.471 51.535 69.58 51.48 69.732L51.218 70.475C51.209 70.497 51.205 70.496 51.209 70.47C51.229 70.014 51.222 69.493 51.19 68.907C51.185 68.855 51.157 68.822 51.102 68.805L50.83 68.737C50.73 68.712 50.687 68.75 50.704 68.854C50.746 69.158 50.754 69.428 50.728 69.664C50.525 69.571 50.445 69.804 50.49 70.363C49.779 67.704 49.476 64.837 49.583 61.763C49.748 57.124 50.807 52.948 52.762 49.237C53.393 49.027 53.99 48.701 54.557 48.262C54.683 48.165 54.837 48.114 54.994 48.115C55.573 48.133 56.076 48.023 56.504 47.791C57.465 47.266 58.45 46.741 59.459 46.214C59.747 46.062 60.08 45.947 60.459 45.87C60.727 45.817 60.973 45.72 61.197 45.577C62.445 44.808 63.695 43.969 64.948 43.059C65.088 42.959 65.244 42.903 65.418 42.894C65.7 42.875 65.973 42.81 66.239 42.7C66.387 42.637 66.512 42.529 66.593 42.389C66.939 41.801 67.393 41.403 67.952 41.195C68.112 41.134 68.238 41.032 68.335 40.89C68.404 40.789 68.491 40.705 68.597 40.638C70.306 39.548 72.163 38.201 74.169 36.6C74.791 36.105 75.326 35.601 75.775 35.09C75.873 34.981 75.991 34.901 76.13 34.852C76.405 34.753 76.584 34.571 76.669 34.309C76.721 34.157 76.822 34.103 76.974 34.149C77.153 34.204 77.291 34.152 77.392 33.993C77.469 33.868 77.581 33.808 77.727 33.819C78.096 33.841 78.308 33.728 78.367 33.479Z" fill="#2FBEE3"/>
<path d="M185.122 58.512C185.559 58.315 185.782 57.956 185.792 57.434C185.795 57.351 185.827 57.335 185.889 57.39C185.925 57.42 185.95 57.457 185.967 57.502C186.068 57.725 186.153 57.72 186.224 57.488C186.276 57.322 186.392 57.273 186.573 57.337C186.702 57.385 186.848 57.359 186.951 57.269C187.725 56.603 188.627 55.983 189.66 55.41C190.052 55.194 190.504 54.889 191.014 54.498C191.441 54.168 191.899 53.882 192.388 53.639C192.526 53.568 192.637 53.464 192.718 53.328C192.808 53.17 192.95 53.078 193.145 53.052C193.31 53.029 193.449 52.958 193.562 52.838C194.238 52.107 195.026 51.353 195.925 50.577C196.246 50.302 196.413 49.996 196.426 49.659C196.429 49.611 196.406 49.581 196.358 49.567C196.264 49.545 196.241 49.491 196.289 49.407C196.836 48.42 197.536 47.425 198.391 46.423C198.659 46.109 198.867 45.767 199.012 45.398C199.141 45.066 199.351 44.771 199.643 44.515C201.458 42.923 203.318 41.095 205.224 39.031C205.353 38.892 205.465 38.741 205.559 38.579C205.676 38.38 205.844 38.247 206.063 38.181C206.143 38.16 206.214 38.118 206.267 38.061L209.795 34.445C209.8 34.442 209.801 34.437 209.801 34.429C209.801 34.382 209.801 34.333 209.801 34.285C209.801 34.204 209.841 34.165 209.922 34.168C210.029 34.174 210.134 34.16 210.237 34.125C210.328 34.095 210.285 33.944 210.107 33.668C220.88 32.649 229.589 36.257 236.231 44.491C242.515 52.28 243.831 63.118 240.871 72.407C234.537 92.29 210.504 98.759 194.727 85.155C187.025 78.516 183.895 68.592 185.122 58.512ZM213.788 78.895C222.027 78.866 228.681 71.675 228.65 62.832C228.619 53.99 221.915 46.845 213.676 46.874C205.437 46.902 198.782 54.093 198.813 62.937C198.845 71.778 205.548 78.924 213.788 78.895Z" fill="#2FBEE3" fill-opacity="0.808"/>
<path d="M210.107 33.668C210.285 33.944 210.328 34.095 210.237 34.125C210.134 34.16 210.029 34.174 209.922 34.168C209.841 34.165 209.801 34.204 209.801 34.285C209.801 34.333 209.801 34.382 209.801 34.429C209.801 34.437 209.8 34.442 209.795 34.445L206.267 38.061C206.214 38.118 206.143 38.16 206.063 38.181C205.844 38.247 205.676 38.38 205.559 38.579C205.465 38.741 205.353 38.892 205.224 39.031C203.318 41.095 201.458 42.923 199.643 44.515C199.351 44.771 199.141 45.066 199.012 45.398C198.867 45.767 198.659 46.109 198.391 46.423C197.536 47.425 196.836 48.42 196.289 49.407C196.241 49.491 196.264 49.545 196.358 49.567C196.406 49.581 196.429 49.611 196.426 49.659C196.413 49.996 196.246 50.302 195.925 50.577C195.026 51.353 194.238 52.107 193.562 52.838C193.449 52.958 193.31 53.029 193.145 53.052C192.95 53.078 192.808 53.17 192.718 53.328C192.637 53.464 192.526 53.568 192.388 53.639C191.899 53.882 191.441 54.168 191.014 54.498C190.504 54.889 190.052 55.194 189.66 55.41C188.627 55.983 187.725 56.603 186.951 57.269C186.848 57.359 186.702 57.385 186.573 57.337C186.392 57.273 186.276 57.322 186.224 57.488C186.153 57.72 186.068 57.725 185.967 57.502C185.95 57.457 185.925 57.42 185.889 57.39C185.827 57.335 185.795 57.351 185.792 57.434C185.782 57.956 185.559 58.315 185.122 58.512C185.608 54.452 186.79 50.815 188.67 47.601C193.388 39.529 200.532 34.884 210.107 33.668Z" fill="#2FBEE3"/>
<path d="M143.104 33.925C145.905 34.44 148.547 35.336 151.029 36.613C150.66 36.712 150.338 36.671 150.063 36.493C149.917 36.399 149.791 36.42 149.684 36.556C149.584 36.682 149.447 36.694 149.272 36.589C149.05 36.46 148.766 36.519 148.617 36.725C147.71 37.983 146.447 38.57 145.462 39.7C144.75 40.519 144.071 41.406 143.424 42.361C143.359 42.454 143.323 42.556 143.317 42.666C143.317 42.718 143.308 42.766 143.293 42.811C143.274 42.879 143.233 42.936 143.171 42.981C142.139 43.742 141.142 44.53 140.182 45.345C140.081 45.433 140.079 45.523 140.172 45.616C140.208 45.655 140.239 45.699 140.265 45.747C140.361 45.929 140.309 46.039 140.11 46.078L139.464 46.204C139.399 46.217 139.399 46.229 139.464 46.237C139.548 46.248 139.619 46.284 139.677 46.345C139.784 46.458 139.76 46.504 139.604 46.486C137.741 46.243 135.902 46.201 134.086 46.36C132.879 46.466 132.387 46.823 132.611 47.431C128.521 48.409 125.403 50.765 123.254 54.503C120.463 59.362 120.565 64.02 122.167 69.165C121.559 69.08 121.295 68.687 121.375 67.985C121.391 67.827 121.323 67.752 121.172 67.762C121.075 67.769 120.997 67.681 120.938 67.499C120.9 67.393 120.882 67.283 120.886 67.17C120.886 66.75 120.884 66.332 120.881 65.917C120.877 65.869 120.852 65.845 120.803 65.845C120.755 65.845 120.73 65.869 120.73 65.917C120.736 66.448 120.72 66.979 120.677 67.509C120.664 67.662 120.62 67.781 120.546 67.868C120.453 67.978 120.336 68.069 120.197 68.14C120.051 68.215 119.961 68.173 119.925 68.014C119.882 67.833 119.749 67.75 119.522 67.766C119.382 67.777 119.264 67.828 119.168 67.922C118.385 68.667 117.517 69.239 116.561 69.64C116.412 69.701 116.26 69.725 116.1 69.707C115.473 69.64 114.89 69.707 114.353 69.912C113.732 70.151 113.105 70.306 112.471 70.378C111.47 70.491 110.488 70.61 109.524 70.737C109.395 70.756 109.322 70.831 109.306 70.959C109.28 71.161 109.169 71.235 108.971 71.183C108.894 71.163 108.819 71.166 108.748 71.188C108.596 71.233 108.524 71.336 108.534 71.494L108.622 73.275C106.846 68.6 106.338 63.71 107.097 58.604C107.166 58.71 107.246 58.709 107.34 58.598C107.421 58.509 107.48 58.521 107.515 58.637C107.534 58.709 107.534 58.78 107.515 58.852C107.502 58.887 107.5 58.921 107.506 58.953C107.534 59.105 107.549 59.102 107.549 58.944C107.549 58.908 107.554 58.874 107.564 58.841C107.703 58.454 107.793 58.463 107.836 58.871C107.871 59.198 107.883 59.542 107.869 59.904C107.86 60.219 107.941 60.244 108.112 59.982L108.394 59.545C108.477 59.419 108.594 59.334 108.743 59.288C109.037 59.204 109.287 59.055 109.49 58.841C109.666 58.657 109.845 58.497 110.029 58.361C110.223 58.218 110.414 58.076 110.602 57.934C110.873 57.727 110.923 57.771 110.748 58.065C110.608 58.292 110.432 58.481 110.219 58.633C110.202 58.646 110.206 58.656 110.233 58.662C110.239 58.665 110.245 58.668 110.253 58.672C110.269 58.682 110.283 58.68 110.296 58.667C110.878 58.05 111.757 57.428 112.932 56.804C113.229 56.645 113.535 56.414 113.848 56.109C113.969 55.996 114.107 55.922 114.266 55.886C114.805 55.769 115.033 55.25 115.475 54.911C116.429 54.18 117.3 53.36 118.09 52.455C118.197 52.335 118.33 52.233 118.488 52.149C118.595 52.098 118.697 52.04 118.794 51.974C118.927 51.891 119.03 51.786 119.105 51.663C119.681 50.749 120.339 50.035 121.08 49.524C121.798 49.028 122.225 48.277 122.9 47.733C123.737 47.053 124.653 46.423 125.646 45.84C126.074 45.592 126.277 45.204 126.705 44.961C127.504 44.499 128.24 43.922 128.912 43.229C129.509 42.621 130.213 42.022 131.023 41.434C131.762 40.899 132.493 40.356 133.217 39.803C133.299 39.742 133.348 39.66 133.368 39.56C133.381 39.492 133.423 39.433 133.494 39.386C134.717 38.553 135.859 37.612 136.921 36.561C137.606 35.881 138.569 35.322 139.808 34.881C139.986 34.817 140.108 34.695 140.172 34.517C140.191 34.456 140.217 34.399 140.25 34.348C140.302 34.265 140.39 34.21 140.488 34.197L143.104 33.925Z" fill="#2FBEE3"/>
<path d="M151.029 36.613C154.202 38.229 156.727 40.12 158.604 42.287C161.133 45.209 158.973 46.941 156.619 48.956C154.572 50.712 152.581 52.186 150.646 53.377C149.798 53.898 149.063 53.772 148.442 52.998C146.811 50.965 145.525 49.296 142.958 48.232C139.697 46.89 136.247 46.623 132.611 47.431C132.387 46.823 132.879 46.466 134.086 46.36C135.902 46.201 137.741 46.243 139.604 46.486C139.76 46.504 139.784 46.458 139.677 46.345C139.619 46.284 139.548 46.248 139.464 46.237C139.399 46.229 139.399 46.217 139.464 46.204L140.11 46.078C140.309 46.039 140.361 45.929 140.265 45.747C140.239 45.699 140.208 45.655 140.172 45.616C140.079 45.523 140.081 45.433 140.182 45.345C141.142 44.53 142.139 43.742 143.171 42.981C143.233 42.936 143.274 42.879 143.293 42.811C143.308 42.766 143.317 42.718 143.317 42.666C143.323 42.556 143.359 42.454 143.424 42.361C144.071 41.406 144.75 40.519 145.462 39.7C146.447 38.57 147.71 37.983 148.617 36.725C148.766 36.519 149.05 36.46 149.272 36.589C149.447 36.694 149.584 36.682 149.684 36.556C149.791 36.42 149.917 36.399 150.063 36.493C150.338 36.671 150.66 36.712 151.029 36.613Z" fill="#2FBEE3" fill-opacity="0.808"/>
<path d="M95.984 38.274C97.867 39.482 101.9 42.433 101.881 44.733C101.875 45.668 101.489 46.515 100.726 47.272C98.45 49.543 95.591 52.202 92.631 53.562C92.099 53.809 91.465 53.675 91.078 53.231C89.161 51.052 87.69 49.383 84.661 48.126C85.308 47.864 85.772 47.585 86.05 47.287C86.149 47.177 86.3 47.128 86.448 47.156C86.693 47.203 86.88 47.131 87.005 46.937C87.083 46.814 87.172 46.697 87.272 46.588C88.282 45.429 89.316 44.206 90.374 42.918C90.827 42.368 91.297 41.826 91.786 41.292C92.249 40.791 92.783 40.338 93.387 39.934C94.309 39.316 95.175 38.763 95.984 38.274Z" fill="#03263D"/>
<path d="M179.706 77.677C179.7 80.579 179.68 83.486 179.649 86.398C179.629 87.989 178.838 89.443 177.274 90.756C175.362 92.363 172.296 92.484 170.078 91.139C167.757 89.727 166.875 87.024 166.883 84.331C166.907 77.731 166.957 71.154 167.034 64.602C167.355 64.133 167.502 63.547 167.476 62.84C167.469 62.702 167.52 62.678 167.626 62.768C167.666 62.797 167.698 62.834 167.724 62.879C167.763 62.945 167.819 62.974 167.894 62.967C168.748 62.886 169.295 62.433 169.533 61.607C169.727 60.932 170.033 60.35 170.451 59.86C170.483 59.822 170.523 59.81 170.573 59.827C170.592 59.834 170.611 59.837 170.631 59.837C170.666 59.837 170.694 59.817 170.713 59.779C170.985 59.23 171.354 58.745 171.422 58.123C171.538 57.108 171.818 56.158 172.261 55.275C172.449 54.903 172.681 54.578 172.961 54.298C173.328 53.925 173.416 53.435 173.78 53.072C174.473 52.379 175.086 51.62 175.619 50.796C175.707 50.659 175.755 50.51 175.766 50.348C175.775 50.08 175.832 49.818 175.935 49.563C176.227 48.815 176.521 48.026 176.819 47.195C176.875 47.037 176.879 46.863 176.828 46.699C176.527 45.715 176.766 44.92 177.546 44.312C178.368 43.665 178.685 42.818 178.498 41.773C178.475 41.654 178.523 41.578 178.643 41.55C178.877 41.501 178.991 41.344 178.988 41.079C178.988 41.076 178.986 41.074 178.983 41.074C178.979 41.074 178.978 41.074 178.978 41.074C178.978 41.078 178.978 41.079 178.978 41.079C179.022 42.122 179.381 43.088 179.352 44.078C179.31 45.473 179.259 46.866 179.201 48.257C179.201 48.283 179.207 48.308 179.22 48.33C179.251 48.372 179.281 48.409 179.313 48.441C179.343 48.47 179.358 48.501 179.362 48.533C179.455 50.472 179.493 52.411 179.473 54.352C179.473 54.372 179.418 54.857 179.308 55.808C179.24 56.417 179.244 56.978 179.318 57.492C179.577 59.198 179.574 62.13 179.308 66.291C179.269 66.92 179.281 67.534 179.343 68.135C179.404 68.706 179.447 69.25 179.473 69.771C179.618 72.399 179.696 75.034 179.706 77.677Z" fill="#2FBEE3" fill-opacity="0.808"/>
<path d="M35.392 47.078L43.347 69.771L43.07 69.703C42.94 69.671 42.866 69.72 42.846 69.853C42.84 69.915 42.836 69.974 42.832 70.028C42.834 70.042 42.849 70.053 42.86 70.047C42.865 70.045 42.868 70.039 42.866 70.033C42.876 69.949 42.856 69.869 42.807 69.795C42.744 69.69 42.591 69.694 42.532 69.8C42.488 69.877 42.479 69.95 42.502 70.018C42.566 70.216 42.547 70.224 42.444 70.043C42.114 69.458 41.736 69.096 41.308 68.961C40.91 68.834 40.75 68.548 40.827 68.102C40.852 67.954 40.709 67.835 40.568 67.888C40.564 67.889 40.56 67.891 40.556 67.893C40.249 68.032 40.149 68.252 40.26 68.552C40.326 68.741 40.263 68.949 40.105 69.067C39.344 69.64 38.528 70.108 37.659 70.47C37.458 70.553 37.232 70.552 37.032 70.465C36.456 70.212 35.919 70.094 35.422 70.111C33.978 70.153 32.43 70.223 30.777 70.32C30.641 70.326 30.54 70.39 30.476 70.509C29.985 71.386 29.232 71.633 28.219 71.251C27.361 70.928 26.47 70.772 25.545 70.785C23.963 70.808 22.313 70.803 20.595 70.771C20.405 70.768 20.247 70.816 20.125 70.916C19.992 71.032 19.88 71.175 19.789 71.343C19.734 71.45 19.703 71.443 19.697 71.325C19.694 71.269 19.676 71.222 19.643 71.183C19.565 71.076 19.475 71.062 19.372 71.139C18.765 71.586 18.212 72.237 17.479 72.392C16.308 72.643 15.154 72.845 14.019 72.993C13.702 73.035 13.393 73.119 13.092 73.246C12.748 73.395 12.396 73.485 12.034 73.517C11.515 73.57 11.015 73.707 10.529 73.93C9.71101 74.309 8.933 74.663 8.194 74.993C8.114 75.029 8.038 75.022 7.967 74.973C7.905 74.932 7.829 74.939 7.739 74.997C7.325 75.253 6.891 75.492 6.439 75.711C6.302 75.776 6.19901 75.744 6.12801 75.614L5.924 75.24C5.865 75.134 5.793 75.124 5.705 75.212C5.637 75.279 5.556 75.324 5.463 75.347C5.304 75.389 5.187 75.486 5.114 75.634C4.622 76.611 4.297 77.586 4.138 78.559C4.112 78.713 4.023 78.796 3.87 78.813L3.584 78.837L11.262 57.857C11.589 58.002 11.892 58.019 12.169 57.905C12.316 57.847 12.465 57.837 12.616 57.875C13.602 58.123 14.451 57.346 15.125 56.735C15.19 56.677 15.229 56.692 15.241 56.779C15.247 56.83 15.267 56.878 15.3 56.92C15.323 56.948 15.352 56.957 15.387 56.944C16.319 56.563 17.18 56.078 17.969 55.488C18.7 54.945 19.565 54.495 20.561 54.139C21.603 53.77 22.666 53.303 23.75 52.737C25.468 51.833 27.346 51.071 29.16 50.203C29.562 50.012 29.999 49.869 30.471 49.776C30.582 49.757 30.661 49.694 30.709 49.587C30.734 49.528 30.741 49.469 30.728 49.407C30.712 49.323 30.742 49.237 30.806 49.179C31.708 48.373 32.781 47.952 34.023 47.913C34.263 47.905 34.295 47.941 34.121 48.019C34.078 48.035 34.08 48.046 34.125 48.053C34.51 48.105 34.732 47.944 34.79 47.573C34.839 47.272 35.039 47.107 35.392 47.078ZM24.865 57.046C23.681 61.501 22.109 65.942 20.503 70.266C20.446 70.424 20.562 70.591 20.731 70.591L29.355 70.577C29.666 70.577 29.762 70.435 29.646 70.149C27.963 66.012 26.513 61.762 25.293 57.4C25.245 57.233 25.18 57.098 25.098 56.998C25.039 56.916 24.913 56.93 24.873 57.024C24.87 57.031 24.867 57.038 24.865 57.046Z" fill="#2FBEE3"/>
<path d="M20.503 70.266C22.109 65.942 23.681 61.501 24.865 57.046C24.888 56.948 25.008 56.911 25.083 56.979C25.089 56.985 25.094 56.992 25.098 56.998C25.18 57.098 25.245 57.233 25.293 57.4C26.513 61.762 27.963 66.012 29.646 70.149C29.762 70.435 29.666 70.577 29.355 70.577L20.731 70.591C20.562 70.591 20.446 70.424 20.503 70.266Z" fill="white"/>
<path d="M63.463 64.379C64.472 70.538 67.2 75.201 73.024 77.802C72.467 77.825 71.888 77.75 71.286 77.575C70.863 77.451 70.479 77.233 70.136 76.915C69.761 76.569 69.34 76.363 68.875 76.298C68.715 76.279 68.581 76.214 68.471 76.104L67.278 74.954C67.161 74.84 67.023 74.789 66.865 74.799C66.421 74.825 66.027 74.954 65.681 75.187C65.548 75.277 65.405 75.306 65.249 75.269C64.916 75.199 64.585 75.182 64.259 75.221C64.1 75.244 63.944 75.228 63.794 75.173C63.408 75.034 63.005 75.014 62.585 75.114C62.241 75.195 61.885 75.244 61.511 75.26C60.952 75.283 60.401 75.355 59.857 75.479C59.718 75.507 59.601 75.573 59.508 75.677C58.993 76.22 58.378 76.546 57.663 76.653C56.867 76.773 56.168 77.069 55.567 77.541C55.45 77.635 55.318 77.698 55.169 77.731C54.891 77.794 54.703 77.713 54.606 77.483C54.581 77.418 54.533 77.4 54.465 77.429L54.32 77.492C54.196 77.547 54.141 77.641 54.154 77.774C54.177 78.068 54.137 78.347 54.034 78.609C52.345 76.111 51.163 73.362 50.49 70.363C50.445 69.804 50.525 69.571 50.728 69.664C50.754 69.428 50.746 69.158 50.704 68.854C50.687 68.75 50.73 68.712 50.83 68.737L51.102 68.805C51.157 68.822 51.185 68.855 51.19 68.907C51.222 69.493 51.229 70.014 51.209 70.47C51.205 70.496 51.209 70.497 51.218 70.475L51.48 69.732C51.535 69.58 51.636 69.471 51.782 69.408C52.354 69.154 52.896 68.848 53.407 68.489C53.523 68.412 53.779 68.336 54.174 68.262C54.442 68.214 54.703 68.137 54.955 68.034C57.11 67.15 59.296 66.358 61.511 65.656C61.658 65.61 61.756 65.517 61.808 65.374C61.915 65.086 62.12 64.997 62.424 65.107C62.648 65.188 62.812 65.121 62.914 64.908C63.047 64.633 63.23 64.457 63.463 64.379Z" fill="#03263D"/>
<path d="M122.167 69.165C125.374 76.42 132.281 80.064 140.09 78.478C143.619 77.759 146.398 75.961 148.422 73.08C149.422 71.659 150.412 71.271 151.892 72.532C153.843 74.189 155.854 75.86 157.926 77.545C161.08 80.118 159.599 82.19 157.173 84.369C141.502 98.443 116.455 93.303 108.622 73.275L108.534 71.494C108.524 71.336 108.596 71.233 108.748 71.188C108.819 71.166 108.894 71.163 108.971 71.183C109.169 71.235 109.28 71.161 109.306 70.959C109.322 70.831 109.395 70.756 109.524 70.737C110.488 70.61 111.47 70.491 112.471 70.378C113.105 70.306 113.732 70.151 114.353 69.912C114.89 69.707 115.473 69.64 116.1 69.707C116.26 69.725 116.412 69.701 116.561 69.64C117.517 69.239 118.385 68.667 119.168 67.922C119.264 67.828 119.382 67.777 119.522 67.766C119.749 67.75 119.882 67.833 119.925 68.014C119.961 68.173 120.051 68.215 120.197 68.14C120.336 68.069 120.453 67.978 120.546 67.868C120.62 67.781 120.664 67.662 120.677 67.509C120.72 66.979 120.736 66.448 120.73 65.917C120.73 65.869 120.755 65.845 120.803 65.845C120.852 65.845 120.877 65.869 120.881 65.917C120.884 66.332 120.886 66.75 120.886 67.17C120.882 67.283 120.9 67.393 120.938 67.499C120.997 67.681 121.075 67.769 121.172 67.762C121.323 67.752 121.391 67.827 121.375 67.985C121.295 68.687 121.559 69.08 122.167 69.165Z" fill="#2FBEE3" fill-opacity="0.808"/>
<path d="M43.347 69.771C45.391 75.275 47.565 80.731 49.869 86.141C50.238 87.005 50.125 88.004 49.53 89.141C48.695 90.735 47.366 91.576 45.545 91.664C42.439 91.813 40.429 91.795 39.517 91.61C37.95 91.294 36.902 89.567 36.368 88.203C35.704 86.505 35.044 84.705 34.388 82.802C34.287 82.506 34.009 82.305 33.694 82.302L16.61 82.248C16.393 82.248 16.202 82.388 16.135 82.593C15.472 84.629 14.694 86.663 13.8 88.698C12.243 92.241 8.91298 91.887 5.69098 91.853C2.11898 91.819 0.124988 89.649 1.00199 85.99C1.30999 84.703 2.17099 82.318 3.58399 78.837L3.86998 78.813C4.02298 78.796 4.11199 78.713 4.13799 78.559C4.29699 77.586 4.62199 76.611 5.11399 75.634C5.18699 75.486 5.30399 75.389 5.46299 75.347C5.55599 75.324 5.63699 75.279 5.70499 75.212C5.79299 75.124 5.86499 75.134 5.92399 75.24L6.128 75.614C6.199 75.744 6.30198 75.776 6.43898 75.711C6.89098 75.492 7.32499 75.253 7.73899 74.997C7.82899 74.939 7.90498 74.932 7.96698 74.973C8.03798 75.022 8.11399 75.029 8.19399 74.993C8.93299 74.663 9.711 74.309 10.529 73.93C11.015 73.707 11.515 73.57 12.034 73.517C12.396 73.485 12.748 73.395 13.092 73.246C13.393 73.119 13.702 73.035 14.019 72.993C15.154 72.845 16.308 72.643 17.479 72.392C18.212 72.237 18.765 71.586 19.372 71.139C19.475 71.062 19.565 71.076 19.643 71.183C19.676 71.222 19.694 71.269 19.697 71.325C19.703 71.443 19.734 71.45 19.789 71.343C19.88 71.175 19.992 71.032 20.125 70.916C20.247 70.816 20.405 70.768 20.595 70.771C22.313 70.803 23.963 70.808 25.545 70.785C26.47 70.772 27.361 70.928 28.219 71.251C29.232 71.633 29.985 71.386 30.476 70.509C30.54 70.39 30.641 70.326 30.777 70.32C32.43 70.223 33.978 70.153 35.422 70.111C35.919 70.094 36.456 70.212 37.032 70.465C37.232 70.552 37.458 70.553 37.659 70.47C38.528 70.108 39.344 69.64 40.105 69.067C40.263 68.949 40.326 68.741 40.26 68.552C40.149 68.252 40.249 68.032 40.556 67.893C40.692 67.831 40.844 67.94 40.829 68.089C40.829 68.092 40.828 68.097 40.827 68.102C40.75 68.548 40.91 68.834 41.308 68.961C41.736 69.096 42.114 69.458 42.444 70.043C42.547 70.224 42.566 70.216 42.502 70.018C42.479 69.95 42.488 69.877 42.532 69.8C42.591 69.694 42.744 69.69 42.807 69.795C42.856 69.869 42.876 69.949 42.866 70.033C42.868 70.047 42.855 70.054 42.843 70.045C42.837 70.041 42.833 70.035 42.832 70.028C42.836 69.974 42.84 69.915 42.846 69.853C42.866 69.72 42.94 69.671 43.07 69.703L43.347 69.771Z" fill="#2FBEE3" fill-opacity="0.808"/>
<path d="M54.034 78.609C54.137 78.347 54.177 78.068 54.154 77.774C54.141 77.641 54.196 77.547 54.32 77.492L54.465 77.429C54.533 77.4 54.581 77.418 54.606 77.483C54.703 77.713 54.891 77.794 55.169 77.731C55.318 77.698 55.45 77.635 55.567 77.541C56.168 77.069 56.867 76.773 57.663 76.653C58.378 76.546 58.993 76.22 59.508 75.677C59.601 75.573 59.718 75.507 59.857 75.479C60.401 75.355 60.952 75.283 61.511 75.26C61.885 75.244 62.241 75.195 62.585 75.114C63.005 75.014 63.408 75.034 63.794 75.173C63.944 75.228 64.1 75.244 64.259 75.221C64.585 75.182 64.916 75.199 65.249 75.269C65.405 75.306 65.548 75.277 65.681 75.187C66.027 74.954 66.421 74.825 66.865 74.799C67.023 74.789 67.161 74.84 67.278 74.954L68.471 76.104C68.581 76.214 68.715 76.279 68.875 76.298C69.34 76.363 69.761 76.569 70.136 76.915C70.479 77.233 70.863 77.451 71.286 77.575C71.888 77.75 72.467 77.825 73.024 77.802C79.017 80.089 85.734 78.827 89.933 73.959C90.704 73.066 91.985 70.931 93.499 72.105C95.783 73.872 98.212 76.01 100.784 78.521C102.943 80.628 101.119 83.063 99.366 84.606C97.29 86.438 95.04 87.983 92.621 89.242C84.118 93.658 73.791 93.29 65.312 89.009C60.733 86.696 56.975 83.229 54.034 78.609Z" fill="#011524"/>
<path d="M179.706 77.677C179.696 75.034 179.618 72.399 179.473 69.771C179.447 69.25 179.404 68.706 179.343 68.135C179.281 67.534 179.269 66.92 179.308 66.291C179.574 62.13 179.577 59.198 179.318 57.492C179.244 56.978 179.24 56.417 179.308 55.808C179.418 54.857 179.473 54.372 179.473 54.352C179.493 52.411 179.455 50.472 179.362 48.533C179.358 48.501 179.343 48.47 179.313 48.441C179.281 48.409 179.251 48.372 179.22 48.33C179.207 48.308 179.201 48.283 179.201 48.257C179.259 46.866 179.31 45.473 179.352 44.078C179.381 43.088 179.022 42.122 178.978 41.079C178.978 41.079 178.978 41.078 178.978 41.074C178.978 41.074 178.979 41.074 178.983 41.074C178.986 41.074 178.988 41.076 178.988 41.079C178.991 41.344 178.877 41.501 178.643 41.55C178.523 41.578 178.475 41.654 178.498 41.773C178.685 42.818 178.368 43.665 177.546 44.312C176.766 44.92 176.527 45.715 176.828 46.699C176.879 46.863 176.875 47.037 176.819 47.195C176.521 48.026 176.227 48.815 175.935 49.563C175.832 49.818 175.775 50.08 175.766 50.348C175.755 50.51 175.707 50.659 175.619 50.796C175.086 51.62 174.473 52.379 173.78 53.072C173.416 53.435 173.328 53.925 172.961 54.298C172.681 54.578 172.449 54.903 172.261 55.275C171.818 56.158 171.538 57.108 171.422 58.123C171.354 58.745 170.985 59.23 170.713 59.779C170.694 59.817 170.666 59.837 170.631 59.837C170.611 59.837 170.592 59.834 170.573 59.827C170.523 59.81 170.483 59.822 170.451 59.86C170.033 60.35 169.727 60.932 169.533 61.607C169.295 62.433 168.748 62.886 167.894 62.967C167.819 62.974 167.763 62.945 167.724 62.879C167.698 62.834 167.666 62.797 167.626 62.768C167.52 62.678 167.469 62.702 167.476 62.84C167.502 63.547 167.355 64.133 167.034 64.602C166.953 56.028 166.908 47.479 166.898 38.953C166.883 31.382 177.255 30.159 179.498 37.002C179.973 38.459 179.784 41.511 179.789 43.481C179.818 54.88 179.79 66.279 179.706 77.677Z" fill="#2FBEE3"/>
<path d="M143.104 33.925L140.488 34.197C140.39 34.21 140.302 34.265 140.25 34.348C140.217 34.399 140.191 34.456 140.172 34.517C140.108 34.695 139.986 34.817 139.808 34.881C138.569 35.322 137.606 35.881 136.921 36.561C135.859 37.612 134.717 38.553 133.494 39.386C133.423 39.433 133.381 39.492 133.368 39.56C133.348 39.66 133.299 39.742 133.217 39.803C132.493 40.356 131.762 40.899 131.023 41.434C130.213 42.022 129.509 42.621 128.912 43.229C128.24 43.922 127.504 44.499 126.705 44.961C126.277 45.204 126.074 45.592 125.646 45.84C124.653 46.423 123.737 47.053 122.9 47.733C122.225 48.277 121.798 49.028 121.08 49.524C120.339 50.035 119.681 50.749 119.105 51.663C119.03 51.786 118.927 51.891 118.794 51.974C118.697 52.04 118.595 52.098 118.488 52.149C118.33 52.233 118.197 52.335 118.09 52.455C117.3 53.36 116.429 54.18 115.475 54.911C115.033 55.25 114.805 55.769 114.266 55.886C114.107 55.922 113.969 55.996 113.848 56.109C113.535 56.414 113.229 56.645 112.932 56.804C111.757 57.428 110.878 58.05 110.296 58.667C110.283 58.68 110.269 58.682 110.253 58.672C110.245 58.668 110.239 58.665 110.233 58.662C110.206 58.656 110.202 58.646 110.219 58.633C110.432 58.481 110.608 58.292 110.748 58.065C110.923 57.771 110.873 57.727 110.602 57.934C110.414 58.076 110.223 58.218 110.029 58.361C109.845 58.497 109.666 58.657 109.49 58.841C109.287 59.055 109.037 59.204 108.743 59.288C108.594 59.334 108.477 59.419 108.394 59.545L108.112 59.982C107.941 60.244 107.86 60.219 107.869 59.904C107.883 59.542 107.871 59.198 107.836 58.871C107.793 58.463 107.703 58.454 107.564 58.841C107.554 58.874 107.549 58.908 107.549 58.944C107.549 59.102 107.534 59.105 107.506 58.953C107.5 58.921 107.502 58.887 107.515 58.852C107.534 58.78 107.534 58.709 107.515 58.637C107.48 58.521 107.421 58.509 107.34 58.598C107.246 58.709 107.166 58.71 107.097 58.604C107.58 54.34 108.897 50.485 111.048 47.039C117.983 35.935 130.475 31.532 143.104 33.925Z" fill="#2FBEE3" fill-opacity="0.8"/>
<path d="M78.367 33.479C78.308 33.728 78.096 33.841 77.727 33.819C77.581 33.808 77.469 33.868 77.392 33.993C77.291 34.152 77.153 34.204 76.974 34.149C76.822 34.103 76.721 34.157 76.669 34.309C76.584 34.571 76.405 34.753 76.13 34.852C75.991 34.901 75.873 34.981 75.775 35.09C75.326 35.601 74.791 36.105 74.169 36.6C72.163 38.201 70.306 39.548 68.597 40.638C68.491 40.705 68.404 40.789 68.335 40.89C68.238 41.032 68.112 41.134 67.952 41.195C67.393 41.403 66.939 41.801 66.593 42.389C66.512 42.529 66.387 42.637 66.239 42.7C65.973 42.81 65.7 42.875 65.418 42.894C65.244 42.903 65.088 42.959 64.948 43.059C63.695 43.969 62.445 44.808 61.197 45.577C60.973 45.72 60.727 45.817 60.459 45.87C60.08 45.947 59.747 46.062 59.459 46.214C58.45 46.741 57.465 47.266 56.504 47.791C56.076 48.023 55.573 48.133 54.994 48.115C54.837 48.114 54.683 48.165 54.557 48.262C53.99 48.701 53.393 49.027 52.762 49.237C57.809 39.541 67.55 33.745 78.367 33.479Z" fill="#2FBEE3" fill-opacity="0.565"/>
<path d="M78.367 33.479C81.269 33.372 84.134 33.647 86.962 34.305C90.433 35.109 93.442 36.432 95.984 38.274C95.175 38.763 94.309 39.316 93.387 39.934C92.783 40.338 92.249 40.791 91.786 41.292C91.297 41.826 90.827 42.368 90.374 42.918C89.316 44.206 88.282 45.429 87.272 46.588C87.172 46.697 87.083 46.814 87.005 46.937C86.88 47.131 86.693 47.203 86.448 47.156C86.3 47.128 86.149 47.177 86.05 47.287C85.772 47.585 85.308 47.864 84.661 48.126C82.083 47.145 79.57 46.799 77.125 47.087C71.725 47.728 67.782 50.416 65.298 55.153C63.794 58.017 63.181 61.092 63.463 64.379C63.23 64.457 63.047 64.633 62.914 64.908C62.812 65.121 62.648 65.188 62.424 65.107C62.12 64.997 61.915 65.086 61.808 65.374C61.756 65.517 61.658 65.61 61.511 65.656C59.296 66.358 57.11 67.15 54.955 68.034C54.703 68.137 54.442 68.214 54.174 68.262C53.779 68.336 53.523 68.412 53.407 68.489C52.896 68.848 52.354 69.154 51.782 69.408C51.636 69.471 51.535 69.58 51.48 69.732L51.218 70.475C51.209 70.497 51.205 70.496 51.209 70.47C51.229 70.014 51.222 69.493 51.19 68.907C51.185 68.855 51.157 68.822 51.102 68.805L50.83 68.737C50.73 68.712 50.687 68.75 50.704 68.854C50.746 69.158 50.754 69.428 50.728 69.664C50.525 69.571 50.445 69.804 50.49 70.363C49.779 67.704 49.476 64.837 49.583 61.763C49.748 57.124 50.807 52.948 52.762 49.237C53.393 49.027 53.99 48.701 54.557 48.262C54.683 48.165 54.837 48.114 54.994 48.115C55.573 48.133 56.076 48.023 56.504 47.791C57.465 47.266 58.45 46.741 59.459 46.214C59.747 46.062 60.08 45.947 60.459 45.87C60.727 45.817 60.973 45.72 61.197 45.577C62.445 44.808 63.695 43.969 64.948 43.059C65.088 42.959 65.244 42.903 65.418 42.894C65.7 42.875 65.973 42.81 66.239 42.7C66.387 42.637 66.512 42.529 66.593 42.389C66.939 41.801 67.393 41.403 67.952 41.195C68.112 41.134 68.238 41.032 68.335 40.89C68.404 40.789 68.491 40.705 68.597 40.638C70.306 39.548 72.163 38.201 74.169 36.6C74.791 36.105 75.326 35.601 75.775 35.09C75.873 34.981 75.991 34.901 76.13 34.852C76.405 34.753 76.584 34.571 76.669 34.309C76.721 34.157 76.822 34.103 76.974 34.149C77.153 34.204 77.291 34.152 77.392 33.993C77.469 33.868 77.581 33.808 77.727 33.819C78.096 33.841 78.308 33.728 78.367 33.479Z" fill="#08344F"/>
<path d="M185.122 58.512C185.559 58.315 185.782 57.956 185.792 57.434C185.795 57.351 185.827 57.335 185.889 57.39C185.925 57.42 185.95 57.457 185.967 57.502C186.068 57.725 186.153 57.72 186.224 57.488C186.276 57.322 186.392 57.273 186.573 57.337C186.702 57.385 186.848 57.359 186.951 57.269C187.725 56.603 188.627 55.983 189.66 55.41C190.052 55.194 190.504 54.889 191.014 54.498C191.441 54.168 191.899 53.882 192.388 53.639C192.526 53.568 192.637 53.464 192.718 53.328C192.808 53.17 192.95 53.078 193.145 53.052C193.31 53.029 193.449 52.958 193.562 52.838C194.238 52.107 195.026 51.353 195.925 50.577C196.246 50.302 196.413 49.996 196.426 49.659C196.429 49.611 196.406 49.581 196.358 49.567C196.264 49.545 196.241 49.491 196.289 49.407C196.836 48.42 197.536 47.425 198.391 46.423C198.659 46.109 198.867 45.767 199.012 45.398C199.141 45.066 199.351 44.771 199.643 44.515C201.458 42.923 203.318 41.095 205.224 39.031C205.353 38.892 205.465 38.741 205.559 38.579C205.676 38.38 205.844 38.247 206.063 38.181C206.143 38.16 206.214 38.118 206.267 38.061L209.795 34.445C209.8 34.442 209.801 34.437 209.801 34.429C209.801 34.382 209.801 34.333 209.801 34.285C209.801 34.204 209.841 34.165 209.922 34.168C210.029 34.174 210.134 34.16 210.237 34.125C210.328 34.095 210.285 33.944 210.107 33.668C220.88 32.649 229.589 36.257 236.231 44.491C242.515 52.28 243.831 63.118 240.871 72.407C234.537 92.29 210.504 98.759 194.727 85.155C187.025 78.516 183.895 68.592 185.122 58.512ZM213.788 78.895C222.027 78.866 228.681 71.675 228.65 62.832C228.619 53.99 221.915 46.845 213.676 46.874C205.437 46.902 198.782 54.093 198.813 62.937C198.845 71.778 205.548 78.924 213.788 78.895Z" fill="#2FBEE3" fill-opacity="0.808"/>
<path d="M210.107 33.668C210.285 33.944 210.328 34.095 210.237 34.125C210.134 34.16 210.029 34.174 209.922 34.168C209.841 34.165 209.801 34.204 209.801 34.285C209.801 34.333 209.801 34.382 209.801 34.429C209.801 34.437 209.8 34.442 209.795 34.445L206.267 38.061C206.214 38.118 206.143 38.16 206.063 38.181C205.844 38.247 205.676 38.38 205.559 38.579C205.465 38.741 205.353 38.892 205.224 39.031C203.318 41.095 201.458 42.923 199.643 44.515C199.351 44.771 199.141 45.066 199.012 45.398C198.867 45.767 198.659 46.109 198.391 46.423C197.536 47.425 196.836 48.42 196.289 49.407C196.241 49.491 196.264 49.545 196.358 49.567C196.406 49.581 196.429 49.611 196.426 49.659C196.413 49.996 196.246 50.302 195.925 50.577C195.026 51.353 194.238 52.107 193.562 52.838C193.449 52.958 193.31 53.029 193.145 53.052C192.95 53.078 192.808 53.17 192.718 53.328C192.637 53.464 192.526 53.568 192.388 53.639C191.899 53.882 191.441 54.168 191.014 54.498C190.504 54.889 190.052 55.194 189.66 55.41C188.627 55.983 187.725 56.603 186.951 57.269C186.848 57.359 186.702 57.385 186.573 57.337C186.392 57.273 186.276 57.322 186.224 57.488C186.153 57.72 186.068 57.725 185.967 57.502C185.95 57.457 185.925 57.42 185.889 57.39C185.827 57.335 185.795 57.351 185.792 57.434C185.782 57.956 185.559 58.315 185.122 58.512C185.608 54.452 186.79 50.815 188.67 47.601C193.388 39.529 200.532 34.884 210.107 33.668Z" fill="#2FBEE3"/>
<path d="M143.104 33.925C145.905 34.44 148.547 35.336 151.029 36.613C150.66 36.712 150.338 36.671 150.063 36.493C149.917 36.399 149.791 36.42 149.684 36.556C149.584 36.682 149.447 36.694 149.272 36.589C149.05 36.46 148.766 36.519 148.617 36.725C147.71 37.983 146.447 38.57 145.462 39.7C144.75 40.519 144.071 41.406 143.424 42.361C143.359 42.454 143.323 42.556 143.317 42.666C143.317 42.718 143.308 42.766 143.293 42.811C143.274 42.879 143.233 42.936 143.171 42.981C142.139 43.742 141.142 44.53 140.182 45.345C140.081 45.433 140.079 45.523 140.172 45.616C140.208 45.655 140.239 45.699 140.265 45.747C140.361 45.929 140.309 46.039 140.11 46.078L139.464 46.204C139.399 46.217 139.399 46.229 139.464 46.237C139.548 46.248 139.619 46.284 139.677 46.345C139.784 46.458 139.76 46.504 139.604 46.486C137.741 46.243 135.902 46.201 134.086 46.36C132.879 46.466 132.387 46.823 132.611 47.431C128.521 48.409 125.403 50.765 123.254 54.503C120.463 59.362 120.565 64.02 122.167 69.165C121.559 69.08 121.295 68.687 121.375 67.985C121.391 67.827 121.323 67.752 121.172 67.762C121.075 67.769 120.997 67.681 120.938 67.499C120.9 67.393 120.882 67.283 120.886 67.17C120.886 66.75 120.884 66.332 120.881 65.917C120.877 65.869 120.852 65.845 120.803 65.845C120.755 65.845 120.73 65.869 120.73 65.917C120.736 66.448 120.72 66.979 120.677 67.509C120.664 67.662 120.62 67.781 120.546 67.868C120.453 67.978 120.336 68.069 120.197 68.14C120.051 68.215 119.961 68.173 119.925 68.014C119.882 67.833 119.749 67.75 119.522 67.766C119.382 67.777 119.264 67.828 119.168 67.922C118.385 68.667 117.517 69.239 116.561 69.64C116.412 69.701 116.26 69.725 116.1 69.707C115.473 69.64 114.89 69.707 114.353 69.912C113.732 70.151 113.105 70.306 112.471 70.378C111.47 70.491 110.488 70.61 109.524 70.737C109.395 70.756 109.322 70.831 109.306 70.959C109.28 71.161 109.169 71.235 108.971 71.183C108.894 71.163 108.819 71.166 108.748 71.188C108.596 71.233 108.524 71.336 108.534 71.494L108.622 73.275C106.846 68.6 106.338 63.71 107.097 58.604C107.166 58.71 107.246 58.709 107.34 58.598C107.421 58.509 107.48 58.521 107.515 58.637C107.534 58.709 107.534 58.78 107.515 58.852C107.502 58.887 107.5 58.921 107.506 58.953C107.534 59.105 107.549 59.102 107.549 58.944C107.549 58.908 107.554 58.874 107.564 58.841C107.703 58.454 107.793 58.463 107.836 58.871C107.871 59.198 107.883 59.542 107.869 59.904C107.86 60.219 107.941 60.244 108.112 59.982L108.394 59.545C108.477 59.419 108.594 59.334 108.743 59.288C109.037 59.204 109.287 59.055 109.49 58.841C109.666 58.657 109.845 58.497 110.029 58.361C110.223 58.218 110.414 58.076 110.602 57.934C110.873 57.727 110.923 57.771 110.748 58.065C110.608 58.292 110.432 58.481 110.219 58.633C110.202 58.646 110.206 58.656 110.233 58.662C110.239 58.665 110.245 58.668 110.253 58.672C110.269 58.682 110.283 58.68 110.296 58.667C110.878 58.05 111.757 57.428 112.932 56.804C113.229 56.645 113.535 56.414 113.848 56.109C113.969 55.996 114.107 55.922 114.266 55.886C114.805 55.769 115.033 55.25 115.475 54.911C116.429 54.18 117.3 53.36 118.09 52.455C118.197 52.335 118.33 52.233 118.488 52.149C118.595 52.098 118.697 52.04 118.794 51.974C118.927 51.891 119.03 51.786 119.105 51.663C119.681 50.749 120.339 50.035 121.08 49.524C121.798 49.028 122.225 48.277 122.9 47.733C123.737 47.053 124.653 46.423 125.646 45.84C126.074 45.592 126.277 45.204 126.705 44.961C127.504 44.499 128.24 43.922 128.912 43.229C129.509 42.621 130.213 42.022 131.023 41.434C131.762 40.899 132.493 40.356 133.217 39.803C133.299 39.742 133.348 39.66 133.368 39.56C133.381 39.492 133.423 39.433 133.494 39.386C134.717 38.553 135.859 37.612 136.921 36.561C137.606 35.881 138.569 35.322 139.808 34.881C139.986 34.817 140.108 34.695 140.172 34.517C140.191 34.456 140.217 34.399 140.25 34.348C140.302 34.265 140.39 34.21 140.488 34.197L143.104 33.925Z" fill="#2FBEE3"/>
<path d="M186.127 8.93601C185.543 9.16201 184.925 9.254 184.276 9.21C183.511 9.159 182.952 9.15501 182.6 9.19901C181.337 9.36001 180.297 9.29701 179.174 9.36701C179.116 9.37101 178.709 9.366 177.953 9.349C177.561 9.34 177.15 9.41102 176.719 9.56202C176.897 8.06802 176.445 6.98699 175.363 6.31699C173.264 5.01299 171.44 5.31501 169.892 7.22101C169.913 7.10501 169.707 7.05001 169.272 7.05701C169.096 7.06201 168.89 7.09801 168.653 7.16501C167.633 7.45201 166.59 7.533 165.523 7.408C165.02 7.348 163.902 7.26801 162.168 7.16901C162.07 7.16201 161.872 7.17302 161.576 7.20402C161.326 7.22902 161.127 7.19 160.978 7.085C162.381 4.964 164.318 3.25102 166.595 2.11802C169.948 0.450017 173.817 0.148014 177.387 1.27701C181.243 2.49401 184.413 5.27201 186.127 8.93601Z" fill="#08344F"/>
<path d="M176.719 9.56201C176.22 11.182 175.154 12.162 173.519 12.5C171.395 12.556 170.043 11.626 169.46 9.711C169.257 9.038 169.4 8.20801 169.892 7.22101C171.44 5.31501 173.264 5.01298 175.363 6.31698C176.445 6.98698 176.897 8.06801 176.719 9.56201Z" fill="white"/>
<path d="M169.892 7.22102C169.4 8.20802 169.257 9.03801 169.46 9.71101C170.043 11.626 171.395 12.556 173.519 12.5C173.973 12.607 174.524 12.615 175.171 12.525C175.257 12.513 175.304 12.549 175.31 12.632C175.324 12.758 175.395 12.819 175.522 12.817L176.736 12.8C176.824 12.8 176.909 12.814 176.99 12.844C177.099 12.884 177.219 12.9 177.348 12.893C180.854 12.692 184.09 12.243 187.055 11.547C187.415 12.981 187.552 14.461 187.462 15.937C187.337 16.391 186.976 16.567 186.38 16.465C186.264 16.447 186.154 16.461 186.047 16.507C185.597 16.702 185.134 16.814 184.659 16.844C183.922 16.892 183.449 16.941 183.243 16.99C182.462 17.174 181.626 17.344 180.736 17.502C180.513 17.541 180.303 17.601 180.106 17.682C180.007 17.724 179.906 17.728 179.804 17.696C179.511 17.605 179.207 17.629 178.889 17.766C178.857 17.779 178.822 17.786 178.784 17.786C178.719 17.784 178.662 17.77 178.61 17.745C178.535 17.707 178.452 17.692 178.364 17.696C176.226 17.828 174.612 17.863 173.523 17.8C172.549 17.745 170.809 17.539 168.302 17.185C167.787 17.112 167.384 16.899 166.856 16.931C166.257 16.968 165.649 16.921 165.033 16.792C164.794 16.741 164.569 16.777 164.358 16.899C164.289 16.941 164.24 16.924 164.212 16.847L164.177 16.743C164.147 16.664 164.09 16.626 164.007 16.629C162.509 16.672 161.016 16.647 159.527 16.552C159.27 16.536 159 16.707 158.717 17.067C158.229 13.575 159.032 10.026 160.978 7.085C161.127 7.19 161.326 7.22902 161.576 7.20402C161.872 7.17302 162.07 7.16202 162.168 7.16902C163.902 7.26802 165.02 7.348 165.523 7.408C166.59 7.533 167.633 7.45202 168.653 7.16502C168.89 7.09802 169.096 7.06202 169.272 7.05702C169.707 7.05002 169.913 7.10502 169.892 7.22102Z" fill="#03263D"/>
<path d="M186.127 8.936C186.52 9.772 186.831 10.648 187.055 11.547C184.09 12.243 180.854 12.692 177.348 12.893C177.219 12.9 177.099 12.884 176.99 12.844C176.909 12.814 176.824 12.8 176.736 12.8L175.522 12.817C175.395 12.819 175.324 12.758 175.31 12.632C175.304 12.549 175.257 12.513 175.171 12.525C174.524 12.615 173.973 12.607 173.519 12.5C175.154 12.162 176.22 11.182 176.719 9.56201C177.15 9.41101 177.561 9.34 177.953 9.349C178.709 9.366 179.116 9.371 179.174 9.367C180.297 9.297 181.337 9.36001 182.6 9.19901C182.952 9.15501 183.511 9.15899 184.276 9.20999C184.925 9.25399 185.543 9.162 186.127 8.936Z" fill="#03263D"/>
<path d="M187.462 15.937C187.266 19.165 185.993 22.235 183.845 24.655C181.094 27.754 177.144 29.523 172.998 29.514C170.587 29.507 168.218 28.899 166.104 27.744C162.094 25.553 159.354 21.595 158.717 17.067C159 16.707 159.27 16.536 159.527 16.552C161.016 16.647 162.509 16.672 164.007 16.629C164.09 16.626 164.147 16.664 164.177 16.743L164.212 16.847C164.24 16.924 164.289 16.941 164.358 16.899C164.569 16.777 164.794 16.741 165.033 16.792C165.649 16.921 166.257 16.968 166.856 16.931C167.384 16.899 167.787 17.112 168.302 17.185C170.809 17.539 172.549 17.745 173.523 17.8C174.612 17.863 176.226 17.828 178.364 17.696C178.452 17.692 178.535 17.707 178.61 17.745C178.662 17.77 178.719 17.784 178.784 17.786C178.822 17.786 178.857 17.779 178.889 17.766C179.207 17.629 179.511 17.605 179.804 17.696C179.906 17.728 180.007 17.724 180.106 17.682C180.303 17.601 180.513 17.541 180.736 17.502C181.626 17.344 182.462 17.174 183.243 16.99C183.449 16.941 183.922 16.892 184.659 16.844C185.134 16.814 185.597 16.702 186.047 16.507C186.154 16.461 186.264 16.447 186.38 16.465C186.976 16.567 187.337 16.391 187.462 15.937Z" fill="#011524"/>
</svg>
