<svg width="443" height="168" viewBox="0 0 443 168" fill="none" xmlns="http://www.w3.org/2000/svg">
<path d="M63.68 85.054C63.035 85.107 62.668 85.408 62.579 85.959C62.473 86.638 62.067 86.933 61.362 86.837C61.28 86.825 61.277 86.805 61.355 86.775C61.674 86.632 61.615 86.567 61.176 86.581C58.904 86.653 56.941 87.423 55.291 88.897C55.174 89.003 55.12 89.16 55.149 89.314C55.173 89.427 55.159 89.535 55.114 89.643C55.026 89.839 54.882 89.954 54.678 89.989C53.815 90.16 53.016 90.421 52.28 90.771C48.962 92.358 45.527 93.751 42.384 95.406C40.402 96.44 38.457 97.295 36.551 97.97C34.729 98.621 33.147 99.444 31.809 100.437C30.366 101.517 28.791 102.404 27.087 103.101C27.023 103.125 26.97 103.109 26.927 103.057C26.867 102.981 26.831 102.892 26.82 102.799C26.797 102.64 26.727 102.613 26.607 102.719C25.375 103.836 23.822 105.257 22.018 104.804C21.742 104.735 21.47 104.753 21.2 104.859C20.693 105.067 20.14 105.036 19.541 104.771C21.53 99.076 25.431 88.433 31.243 72.837C32.627 69.127 33.826 64.554 36.597 61.902C40.111 58.525 44.404 57.537 49.476 58.926C51.547 59.494 53.264 60.548 54.625 62.089C55.5 63.082 56.365 64.812 57.218 67.279C59.272 73.236 61.424 79.157 63.68 85.054Z" fill="#08344F"/>
<path d="M327.661 141.026C327.643 136.192 327.499 131.372 327.235 126.564C327.187 125.612 327.109 124.616 326.997 123.571C326.883 122.472 326.862 121.349 326.933 120.199C327.419 112.587 327.425 107.224 326.951 104.104C326.816 103.164 326.809 102.137 326.933 101.023C327.134 99.283 327.235 98.396 327.235 98.359C327.271 94.809 327.201 91.262 327.032 87.715C327.025 87.657 326.997 87.601 326.942 87.547C326.883 87.489 326.828 87.421 326.772 87.344C326.748 87.304 326.737 87.258 326.737 87.211C326.843 84.667 326.936 82.118 327.013 79.566C327.066 77.755 326.41 75.988 326.33 74.081C326.33 74.081 326.33 74.078 326.33 74.071C326.33 74.071 326.331 74.071 326.338 74.071C326.344 74.071 326.347 74.075 326.347 74.081C326.353 74.566 326.145 74.852 325.717 74.942C325.497 74.994 325.409 75.132 325.452 75.35C325.793 77.262 325.214 78.811 323.709 79.994C322.283 81.106 321.845 82.561 322.396 84.361C322.49 84.66 322.482 84.979 322.38 85.268C321.835 86.788 321.297 88.231 320.763 89.6C320.575 90.066 320.47 90.545 320.454 91.036C320.433 91.332 320.346 91.604 320.185 91.855C319.209 93.362 318.088 94.751 316.821 96.019C316.155 96.682 315.994 97.579 315.323 98.261C314.81 98.773 314.387 99.367 314.043 100.048C313.232 101.663 312.72 103.4 312.508 105.257C312.383 106.396 311.708 107.282 311.21 108.287C311.176 108.356 311.125 108.393 311.061 108.393C311.024 108.393 310.989 108.388 310.955 108.374C310.863 108.344 310.79 108.366 310.731 108.435C309.967 109.331 309.407 110.396 309.052 111.63C308.617 113.142 307.617 113.97 306.054 114.119C305.917 114.131 305.815 114.078 305.743 113.958C305.695 113.875 305.637 113.807 305.564 113.754C305.37 113.59 305.277 113.633 305.289 113.886C305.337 115.179 305.068 116.252 304.481 117.109C304.333 101.425 304.25 85.788 304.233 70.192C304.205 56.343 323.177 54.105 327.28 66.623C328.149 69.288 327.804 74.871 327.812 78.474C327.866 99.326 327.814 120.177 327.661 141.026Z" fill="#03263D"/>
<path d="M260.708 60.995L255.923 61.492C255.743 61.516 255.582 61.616 255.488 61.769C255.428 61.861 255.38 61.966 255.345 62.077C255.228 62.402 255.005 62.626 254.679 62.743C252.413 63.549 250.651 64.572 249.398 65.816C247.456 67.739 245.366 69.46 243.129 70.983C242.999 71.07 242.922 71.178 242.899 71.302C242.862 71.485 242.773 71.635 242.622 71.747C241.299 72.758 239.961 73.751 238.61 74.73C237.128 75.805 235.84 76.901 234.748 78.013C233.519 79.281 232.172 80.336 230.71 81.182C229.928 81.626 229.557 82.336 228.774 82.789C226.958 83.856 225.282 85.008 223.75 86.252C222.516 87.247 221.735 88.621 220.421 89.528C219.067 90.463 217.862 91.769 216.809 93.441C216.672 93.666 216.484 93.857 216.239 94.01C216.063 94.131 215.876 94.237 215.68 94.33C215.392 94.484 215.148 94.67 214.952 94.889C213.507 96.545 211.914 98.045 210.169 99.382C209.36 100.002 208.944 100.952 207.958 101.166C207.667 101.231 207.414 101.367 207.193 101.574C206.621 102.132 206.061 102.554 205.517 102.845C203.368 103.986 201.76 105.124 200.695 106.252C200.671 106.276 200.645 106.281 200.616 106.262C200.602 106.255 200.591 106.249 200.58 106.243C200.531 106.233 200.524 106.214 200.554 106.19C200.944 105.913 201.266 105.567 201.522 105.151C201.842 104.614 201.751 104.533 201.255 104.912C200.911 105.172 200.562 105.432 200.207 105.692C199.87 105.942 199.543 106.235 199.221 106.571C198.85 106.962 198.392 107.235 197.855 107.389C197.583 107.473 197.369 107.628 197.216 107.859L196.7 108.658C196.388 109.138 196.239 109.092 196.256 108.515C196.282 107.854 196.26 107.224 196.196 106.625C196.117 105.879 195.952 105.863 195.698 106.571C195.68 106.632 195.671 106.694 195.671 106.759C195.671 107.048 195.643 107.054 195.592 106.776C195.58 106.717 195.585 106.656 195.608 106.591C195.643 106.459 195.643 106.329 195.608 106.197C195.544 105.985 195.436 105.964 195.288 106.127C195.116 106.329 194.97 106.331 194.844 106.137C195.727 98.338 198.136 91.286 202.071 84.982C214.757 64.672 237.607 56.617 260.708 60.995Z" fill="#08344F"/>
<path d="M142.29 60.179C142.182 60.634 141.795 60.841 141.119 60.8C140.852 60.781 140.648 60.89 140.507 61.119C140.322 61.409 140.07 61.505 139.743 61.404C139.464 61.32 139.279 61.418 139.185 61.697C139.029 62.176 138.702 62.509 138.199 62.69C137.944 62.78 137.728 62.926 137.549 63.126C136.728 64.061 135.749 64.982 134.611 65.887C130.942 68.816 127.545 71.28 124.419 73.274C124.225 73.397 124.067 73.55 123.94 73.735C123.762 73.994 123.531 74.181 123.24 74.292C122.217 74.673 121.386 75.401 120.753 76.476C120.606 76.733 120.376 76.93 120.106 77.046C119.62 77.247 119.12 77.366 118.604 77.4C118.286 77.417 118 77.52 117.744 77.702C115.452 79.367 113.166 80.901 110.883 82.308C110.474 82.57 110.024 82.748 109.533 82.844C108.839 82.986 108.23 83.195 107.704 83.474C105.858 84.437 104.056 85.398 102.299 86.358C101.516 86.783 100.595 86.984 99.536 86.951C99.25 86.949 98.968 87.043 98.737 87.219C97.699 88.023 96.607 88.619 95.453 89.003C104.685 71.267 122.504 60.665 142.29 60.179Z" fill="#2FBEE3" fill-opacity="0.565"/>
<path d="M142.29 60.179C147.598 59.983 152.84 60.485 158.013 61.69C164.362 63.16 169.866 65.581 174.516 68.95C173.036 69.845 171.452 70.856 169.765 71.986C168.661 72.725 167.684 73.554 166.837 74.47C165.943 75.447 165.082 76.438 164.254 77.445C162.319 79.8 160.427 82.038 158.579 84.158C158.396 84.357 158.234 84.571 158.091 84.797C157.862 85.151 157.521 85.283 157.073 85.197C156.802 85.146 156.525 85.235 156.344 85.437C155.835 85.981 154.988 86.492 153.803 86.971C149.088 85.177 144.491 84.544 140.019 85.071C130.14 86.243 122.928 91.16 118.384 99.825C115.633 105.064 114.512 110.689 115.027 116.701C114.601 116.844 114.267 117.166 114.024 117.669C113.837 118.058 113.538 118.181 113.127 118.032C112.571 117.832 112.196 117.994 112.001 118.521C111.905 118.783 111.727 118.953 111.457 119.037C107.405 120.321 103.406 121.77 99.465 123.387C99.004 123.575 98.526 123.717 98.036 123.804C97.314 123.939 96.845 124.078 96.633 124.22C95.698 124.876 94.707 125.435 93.661 125.901C93.394 126.016 93.209 126.214 93.108 126.493L92.629 127.852C92.613 127.892 92.605 127.89 92.613 127.842C92.649 127.009 92.636 126.055 92.578 124.984C92.569 124.889 92.518 124.828 92.417 124.797L91.92 124.672C91.737 124.627 91.658 124.696 91.689 124.887C91.766 125.443 91.78 125.937 91.733 126.368C91.362 126.199 91.215 126.625 91.297 127.647C89.997 122.784 89.443 117.539 89.639 111.916C89.94 103.431 91.878 95.791 95.453 89.003C96.607 88.619 97.699 88.023 98.737 87.219C98.968 87.043 99.25 86.949 99.536 86.951C100.595 86.984 101.516 86.783 102.299 86.358C104.056 85.398 105.858 84.437 107.704 83.474C108.23 83.195 108.839 82.986 109.533 82.844C110.024 82.748 110.474 82.57 110.883 82.308C113.166 80.901 115.452 79.367 117.744 77.702C118 77.52 118.286 77.417 118.604 77.4C119.12 77.366 119.62 77.247 120.106 77.046C120.376 76.93 120.606 76.733 120.753 76.476C121.386 75.401 122.217 74.673 123.24 74.292C123.531 74.181 123.762 73.994 123.94 73.735C124.067 73.55 124.225 73.397 124.419 73.274C127.545 71.28 130.942 68.816 134.611 65.887C135.749 64.982 136.728 64.061 137.549 63.126C137.728 62.926 137.944 62.78 138.199 62.69C138.702 62.509 139.029 62.176 139.185 61.697C139.279 61.418 139.464 61.32 139.743 61.404C140.07 61.505 140.322 61.409 140.507 61.119C140.648 60.89 140.852 60.781 141.119 60.8C141.795 60.841 142.182 60.634 142.29 60.179Z" fill="#2FBEE3"/>
<path d="M337.568 105.969C338.367 105.608 338.775 104.952 338.793 103.997C338.799 103.845 338.858 103.816 338.971 103.917C339.036 103.972 339.082 104.039 339.113 104.122C339.298 104.53 339.454 104.52 339.584 104.096C339.678 103.792 339.891 103.703 340.222 103.82C340.458 103.907 340.725 103.86 340.914 103.696C342.329 102.477 343.98 101.343 345.869 100.295C346.585 99.9 347.413 99.342 348.346 98.626C349.127 98.023 349.964 97.5 350.859 97.055C351.111 96.926 351.314 96.735 351.462 96.486C351.628 96.197 351.887 96.029 352.244 95.982C352.545 95.94 352.8 95.81 353.006 95.59C354.243 94.253 355.685 92.874 357.329 91.454C357.916 90.951 358.221 90.391 358.245 89.775C358.251 89.687 358.209 89.633 358.121 89.607C357.949 89.566 357.907 89.468 357.995 89.314C358.995 87.508 360.276 85.689 361.84 83.856C362.33 83.282 362.71 82.656 362.975 81.981C363.211 81.373 363.596 80.834 364.13 80.365C367.45 77.454 370.852 74.11 374.339 70.334C374.575 70.08 374.779 69.804 374.952 69.508C375.166 69.143 375.473 68.9 375.873 68.78C376.02 68.741 376.15 68.664 376.246 68.56L382.7 61.945C382.709 61.94 382.711 61.931 382.711 61.916C382.711 61.83 382.711 61.741 382.711 61.653C382.711 61.505 382.785 61.433 382.932 61.439C383.128 61.45 383.32 61.425 383.509 61.36C383.675 61.305 383.596 61.029 383.271 60.524C402.977 58.66 418.908 65.26 431.056 80.322C442.552 94.569 444.959 114.395 439.545 131.386C427.958 167.756 383.997 179.59 355.137 154.705C341.049 142.561 335.323 124.408 337.568 105.969ZM390.004 143.254C405.075 143.201 417.246 130.047 417.189 113.871C417.133 97.698 404.87 84.628 389.799 84.681C374.728 84.732 362.555 97.886 362.612 114.063C362.67 130.235 374.931 143.307 390.004 143.254Z" fill="#011524"/>
<path d="M383.271 60.524C383.596 61.029 383.675 61.305 383.509 61.36C383.32 61.425 383.128 61.45 382.932 61.439C382.785 61.433 382.711 61.505 382.711 61.653C382.711 61.741 382.711 61.83 382.711 61.916C382.711 61.931 382.709 61.94 382.7 61.945L376.246 68.56C376.15 68.664 376.02 68.741 375.873 68.78C375.473 68.9 375.166 69.143 374.952 69.508C374.779 69.804 374.575 70.08 374.339 70.334C370.852 74.11 367.45 77.454 364.13 80.365C363.596 80.834 363.211 81.373 362.975 81.981C362.71 82.656 362.33 83.282 361.84 83.856C360.276 85.689 358.995 87.508 357.995 89.314C357.907 89.468 357.949 89.566 358.121 89.607C358.209 89.633 358.251 89.687 358.245 89.775C358.221 90.391 357.916 90.951 357.329 91.454C355.685 92.874 354.243 94.253 353.006 95.59C352.8 95.81 352.545 95.94 352.244 95.982C351.887 96.029 351.628 96.197 351.462 96.486C351.314 96.735 351.111 96.926 350.859 97.055C349.964 97.5 349.127 98.023 348.346 98.626C347.413 99.342 346.585 99.9 345.869 100.295C343.98 101.343 342.329 102.477 340.914 103.696C340.725 103.86 340.458 103.907 340.222 103.82C339.891 103.703 339.678 103.792 339.584 104.096C339.454 104.52 339.298 104.53 339.113 104.122C339.082 104.039 339.036 103.972 338.971 103.917C338.858 103.816 338.799 103.845 338.793 103.997C338.775 104.952 338.367 105.608 337.568 105.969C338.457 98.542 340.619 91.89 344.058 86.011C352.688 71.245 365.756 62.748 383.271 60.524Z" fill="#03263D"/>
<path d="M260.708 60.995C265.832 61.936 270.664 63.575 275.205 65.911C274.529 66.093 273.94 66.017 273.437 65.692C273.17 65.519 272.94 65.558 272.744 65.807C272.561 66.038 272.311 66.06 271.991 65.867C271.585 65.632 271.065 65.74 270.792 66.116C269.134 68.417 266.823 69.491 265.022 71.558C263.719 73.056 262.477 74.679 261.294 76.425C261.174 76.596 261.109 76.782 261.097 76.983C261.097 77.079 261.082 77.166 261.054 77.248C261.019 77.373 260.944 77.477 260.83 77.56C258.943 78.951 257.119 80.393 255.363 81.884C255.178 82.045 255.175 82.209 255.345 82.38C255.411 82.451 255.467 82.532 255.515 82.619C255.69 82.952 255.596 83.154 255.231 83.225L254.05 83.455C253.93 83.479 253.93 83.501 254.05 83.515C254.204 83.535 254.334 83.602 254.44 83.713C254.635 83.92 254.591 84.004 254.306 83.972C250.898 83.527 247.535 83.45 244.212 83.741C242.004 83.934 241.104 84.588 241.515 85.699C234.033 87.489 228.329 91.798 224.399 98.636C219.293 107.524 219.479 116.045 222.41 125.456C221.298 125.3 220.815 124.581 220.962 123.297C220.991 123.008 220.866 122.871 220.59 122.89C220.412 122.902 220.27 122.741 220.162 122.409C220.092 122.214 220.06 122.013 220.067 121.806C220.067 121.038 220.063 120.273 220.058 119.514C220.05 119.427 220.005 119.383 219.915 119.383C219.827 119.383 219.781 119.427 219.781 119.514C219.793 120.485 219.763 121.457 219.685 122.426C219.661 122.707 219.58 122.924 219.445 123.083C219.274 123.284 219.06 123.451 218.807 123.581C218.54 123.718 218.375 123.641 218.309 123.35C218.23 123.019 217.987 122.868 217.571 122.897C217.316 122.917 217.1 123.01 216.924 123.182C215.491 124.545 213.904 125.591 212.155 126.324C211.883 126.437 211.605 126.48 211.312 126.447C210.166 126.324 209.099 126.447 208.117 126.822C206.98 127.26 205.834 127.543 204.674 127.674C202.843 127.881 201.046 128.099 199.283 128.331C199.047 128.366 198.913 128.503 198.884 128.737C198.837 129.107 198.634 129.242 198.271 129.147C198.131 129.111 197.994 129.116 197.864 129.157C197.586 129.239 197.454 129.427 197.472 129.716L197.633 132.974C194.385 124.422 193.456 115.478 194.844 106.137C194.97 106.331 195.116 106.329 195.288 106.127C195.436 105.964 195.544 105.985 195.608 106.197C195.643 106.329 195.643 106.459 195.608 106.591C195.585 106.656 195.58 106.717 195.592 106.776C195.643 107.054 195.671 107.048 195.671 106.759C195.671 106.694 195.68 106.632 195.698 106.571C195.952 105.863 196.117 105.879 196.196 106.625C196.26 107.224 196.282 107.854 196.256 108.515C196.239 109.092 196.388 109.138 196.7 108.658L197.216 107.859C197.369 107.628 197.583 107.473 197.855 107.389C198.392 107.235 198.85 106.962 199.221 106.571C199.543 106.235 199.87 105.942 200.207 105.692C200.562 105.432 200.911 105.172 201.255 104.912C201.751 104.533 201.842 104.614 201.522 105.151C201.266 105.567 200.944 105.913 200.554 106.19C200.524 106.214 200.531 106.233 200.58 106.243C200.591 106.249 200.602 106.255 200.616 106.262C200.645 106.281 200.671 106.276 200.695 106.252C201.76 105.124 203.368 103.986 205.517 102.845C206.061 102.554 206.621 102.132 207.193 101.574C207.414 101.367 207.667 101.231 207.958 101.166C208.944 100.952 209.36 100.002 210.169 99.382C211.914 98.045 213.507 96.545 214.952 94.889C215.148 94.67 215.392 94.484 215.68 94.33C215.876 94.237 216.063 94.131 216.239 94.01C216.484 93.857 216.672 93.666 216.809 93.441C217.862 91.769 219.067 90.463 220.421 89.528C221.735 88.621 222.516 87.247 223.75 86.252C225.282 85.008 226.958 83.856 228.774 82.789C229.557 82.336 229.928 81.626 230.71 81.182C232.172 80.336 233.519 79.281 234.748 78.013C235.84 76.901 237.128 75.805 238.61 74.73C239.961 73.751 241.299 72.758 242.622 71.747C242.773 71.635 242.862 71.485 242.899 71.302C242.922 71.178 242.999 71.07 243.129 70.983C245.366 69.46 247.456 67.739 249.398 65.816C250.651 64.572 252.413 63.549 254.679 62.743C255.005 62.626 255.228 62.402 255.345 62.077C255.38 61.966 255.428 61.861 255.488 61.769C255.582 61.616 255.743 61.516 255.923 61.492L260.708 60.995Z" fill="#03263D"/>
<path d="M275.205 65.911C281.008 68.867 285.628 72.327 289.06 76.29C293.687 81.635 289.736 84.804 285.43 88.489C281.686 91.702 278.043 94.398 274.504 96.576C272.953 97.529 271.609 97.299 270.472 95.882C267.489 92.164 265.137 89.111 260.441 87.165C254.476 84.71 248.165 84.222 241.515 85.699C241.104 84.588 242.004 83.934 244.212 83.741C247.535 83.45 250.898 83.527 254.306 83.972C254.591 84.004 254.635 83.92 254.44 83.713C254.334 83.602 254.204 83.535 254.05 83.515C253.93 83.501 253.93 83.479 254.05 83.455L255.231 83.225C255.596 83.154 255.69 82.952 255.515 82.619C255.467 82.532 255.411 82.451 255.345 82.38C255.175 82.209 255.178 82.045 255.363 81.884C257.119 80.393 258.943 78.951 260.83 77.56C260.944 77.477 261.019 77.373 261.054 77.248C261.082 77.166 261.097 77.079 261.097 76.983C261.109 76.782 261.174 76.596 261.294 76.425C262.477 74.679 263.719 73.056 265.022 71.558C266.823 69.491 269.134 68.417 270.792 66.116C271.065 65.74 271.585 65.632 271.991 65.867C272.311 66.06 272.561 66.038 272.744 65.807C272.94 65.558 273.17 65.519 273.437 65.692C273.94 66.017 274.529 66.093 275.205 65.911Z" fill="#03193D"/>
<path d="M174.516 68.95C177.96 71.159 185.337 76.557 185.303 80.764C185.291 82.474 184.586 84.025 183.19 85.408C179.026 89.563 173.797 94.427 168.382 96.914C167.41 97.366 166.249 97.121 165.541 96.309C162.035 92.323 159.344 89.27 153.803 86.971C154.988 86.492 155.835 85.981 156.344 85.437C156.525 85.235 156.802 85.146 157.073 85.197C157.521 85.283 157.862 85.151 158.091 84.797C158.234 84.571 158.396 84.357 158.579 84.158C160.427 82.038 162.319 79.8 164.254 77.445C165.082 76.438 165.943 75.447 166.837 74.47C167.684 73.554 168.661 72.725 169.765 71.986C171.452 70.856 173.036 69.845 174.516 68.95Z" fill="#2FBEE3" fill-opacity="0.808"/>
<path d="M327.661 141.026C327.65 146.334 327.614 151.652 327.557 156.978C327.52 159.889 326.073 162.548 323.213 164.951C319.714 167.89 314.106 168.111 310.049 165.651C305.804 163.068 304.19 158.123 304.205 153.198C304.249 141.125 304.341 129.094 304.481 117.109C305.068 116.252 305.337 115.179 305.289 113.886C305.277 113.633 305.37 113.59 305.564 113.754C305.637 113.807 305.695 113.875 305.743 113.958C305.815 114.078 305.917 114.131 306.054 114.119C307.617 113.97 308.617 113.142 309.052 111.63C309.407 110.396 309.967 109.331 310.731 108.435C310.79 108.366 310.863 108.344 310.955 108.374C310.989 108.388 311.024 108.393 311.061 108.393C311.125 108.393 311.176 108.356 311.21 108.287C311.708 107.282 312.383 106.396 312.508 105.257C312.72 103.4 313.232 101.663 314.043 100.048C314.387 99.367 314.81 98.773 315.323 98.261C315.994 97.579 316.155 96.682 316.821 96.019C318.088 94.751 319.209 93.362 320.185 91.855C320.346 91.604 320.433 91.332 320.454 91.036C320.47 90.545 320.575 90.066 320.763 89.6C321.297 88.231 321.835 86.788 322.38 85.268C322.482 84.979 322.49 84.66 322.396 84.361C321.845 82.561 322.283 81.106 323.709 79.994C325.214 78.811 325.793 77.262 325.452 75.35C325.409 75.132 325.497 74.994 325.717 74.942C326.145 74.852 326.353 74.566 326.347 74.081C326.347 74.075 326.344 74.071 326.338 74.071C326.331 74.071 326.33 74.071 326.33 74.071C326.33 74.078 326.33 74.081 326.33 74.081C326.41 75.988 327.066 77.755 327.013 79.566C326.936 82.118 326.843 84.667 326.737 87.211C326.737 87.258 326.748 87.304 326.772 87.344C326.828 87.421 326.883 87.489 326.942 87.547C326.997 87.601 327.025 87.657 327.032 87.715C327.201 91.262 327.271 94.809 327.235 98.359C327.235 98.396 327.134 99.283 326.933 101.023C326.809 102.137 326.816 103.164 326.951 104.104C327.425 107.224 327.419 112.587 326.933 120.199C326.862 121.349 326.883 122.472 326.997 123.571C327.109 124.616 327.187 125.612 327.235 126.564C327.499 131.372 327.643 136.192 327.661 141.026Z" fill="#011524"/>
<path d="M63.68 85.054L78.232 126.564L77.725 126.44C77.487 126.382 77.352 126.471 77.315 126.714C77.304 126.827 77.297 126.935 77.29 127.034C77.293 127.06 77.321 127.08 77.341 127.069C77.35 127.065 77.355 127.055 77.352 127.043C77.37 126.89 77.333 126.743 77.244 126.608C77.129 126.416 76.849 126.423 76.741 126.617C76.66 126.758 76.643 126.892 76.686 127.016C76.803 127.378 76.768 127.393 76.58 127.062C75.976 125.992 75.284 125.329 74.502 125.083C73.774 124.85 73.481 124.328 73.622 123.511C73.668 123.241 73.406 123.023 73.148 123.12C73.141 123.121 73.134 123.125 73.126 123.129C72.564 123.383 72.382 123.785 72.585 124.335C72.706 124.68 72.59 125.061 72.302 125.276C70.909 126.324 69.416 127.181 67.827 127.842C67.459 127.995 67.046 127.993 66.68 127.834C65.626 127.371 64.644 127.155 63.735 127.186C61.094 127.263 58.262 127.392 55.238 127.568C54.99 127.58 54.805 127.697 54.688 127.914C53.79 129.518 52.412 129.97 50.559 129.271C48.99 128.681 47.36 128.395 45.668 128.419C42.774 128.461 39.756 128.452 36.614 128.393C36.266 128.388 35.977 128.476 35.753 128.659C35.51 128.871 35.306 129.133 35.139 129.439C35.039 129.636 34.981 129.622 34.971 129.407C34.965 129.304 34.933 129.218 34.872 129.147C34.729 128.951 34.565 128.926 34.376 129.066C33.266 129.884 32.254 131.075 30.914 131.358C28.771 131.818 26.66 132.187 24.584 132.458C24.005 132.534 23.439 132.688 22.889 132.921C22.259 133.193 21.616 133.358 20.953 133.417C20.005 133.513 19.089 133.764 18.201 134.172C16.704 134.865 15.281 135.513 13.93 136.117C13.783 136.182 13.644 136.17 13.514 136.079C13.401 136.005 13.262 136.017 13.097 136.124C12.34 136.592 11.546 137.029 10.719 137.43C10.469 137.549 10.28 137.49 10.15 137.252L9.777 136.568C9.669 136.375 9.537 136.356 9.377 136.517C9.252 136.639 9.104 136.722 8.933 136.764C8.643 136.841 8.429 137.019 8.295 137.289C7.396 139.076 6.801 140.86 6.51 142.64C6.463 142.921 6.299 143.073 6.02 143.104L5.496 143.148L19.541 104.771C20.14 105.036 20.693 105.067 21.2 104.859C21.47 104.753 21.742 104.735 22.018 104.804C23.822 105.257 25.375 103.836 26.607 102.719C26.727 102.613 26.797 102.64 26.82 102.799C26.831 102.892 26.867 102.981 26.927 103.057C26.97 103.109 27.023 103.125 27.087 103.101C28.791 102.404 30.366 101.517 31.809 100.437C33.147 99.444 34.729 98.621 36.551 97.97C38.457 97.295 40.402 96.44 42.384 95.406C45.527 93.751 48.962 92.358 52.28 90.771C53.016 90.421 53.815 90.16 54.678 89.989C54.882 89.954 55.026 89.839 55.114 89.643C55.159 89.535 55.173 89.427 55.149 89.314C55.12 89.16 55.174 89.003 55.291 88.897C56.941 87.423 58.904 86.653 61.176 86.581C61.615 86.567 61.674 86.632 61.355 86.775C61.277 86.805 61.28 86.825 61.362 86.837C62.067 86.933 62.473 86.638 62.579 85.959C62.668 85.408 63.035 85.107 63.68 85.054ZM44.424 103.287C42.258 111.437 39.383 119.56 36.445 127.469C36.34 127.758 36.553 128.064 36.862 128.064L52.637 128.039C53.206 128.039 53.382 127.779 53.17 127.255C50.091 119.689 47.439 111.914 45.207 103.936C45.119 103.63 45 103.383 44.851 103.2C44.743 103.049 44.512 103.075 44.438 103.248C44.433 103.26 44.428 103.273 44.424 103.287Z" fill="#03263D"/>
<path d="M36.445 127.469C39.383 119.56 42.258 111.437 44.424 103.287C44.466 103.109 44.686 103.041 44.823 103.165C44.834 103.176 44.843 103.189 44.851 103.2C45 103.383 45.119 103.63 45.207 103.936C47.439 111.914 50.091 119.689 53.17 127.255C53.382 127.779 53.206 128.039 52.637 128.039L36.862 128.064C36.553 128.064 36.34 127.758 36.445 127.469Z" fill="white"/>
<path d="M115.027 116.701C116.874 127.967 121.864 136.497 132.517 141.255C131.498 141.297 130.439 141.159 129.338 140.839C128.564 140.612 127.862 140.214 127.234 139.632C126.549 138.999 125.778 138.623 124.928 138.503C124.635 138.469 124.39 138.35 124.189 138.149L122.006 136.045C121.792 135.836 121.54 135.743 121.251 135.762C120.438 135.809 119.718 136.045 119.085 136.471C118.842 136.636 118.581 136.689 118.295 136.621C117.686 136.493 117.08 136.462 116.484 136.533C116.193 136.575 115.907 136.546 115.633 136.445C114.928 136.192 114.19 136.155 113.422 136.338C112.793 136.486 112.141 136.575 111.457 136.605C110.435 136.647 109.427 136.779 108.432 137.005C108.177 137.056 107.963 137.178 107.793 137.368C106.852 138.361 105.726 138.957 104.418 139.153C102.963 139.372 101.684 139.914 100.585 140.778C100.371 140.949 100.13 141.064 99.856 141.125C99.348 141.24 99.004 141.091 98.827 140.671C98.781 140.552 98.693 140.519 98.569 140.572L98.303 140.687C98.077 140.788 97.976 140.961 98 141.204C98.042 141.741 97.968 142.252 97.78 142.731C94.69 138.162 92.528 133.133 91.297 127.647C91.215 126.625 91.362 126.199 91.733 126.368C91.78 125.937 91.766 125.443 91.689 124.887C91.658 124.696 91.737 124.627 91.92 124.672L92.417 124.797C92.518 124.828 92.569 124.889 92.578 124.984C92.636 126.055 92.649 127.009 92.613 127.842C92.605 127.89 92.613 127.892 92.629 127.852L93.108 126.493C93.209 126.214 93.394 126.016 93.661 125.901C94.707 125.435 95.698 124.876 96.633 124.22C96.845 124.078 97.314 123.939 98.036 123.804C98.526 123.717 99.004 123.575 99.465 123.387C103.406 121.77 107.405 120.321 111.457 119.037C111.727 118.953 111.905 118.783 112.001 118.521C112.196 117.994 112.571 117.832 113.127 118.032C113.538 118.181 113.837 118.058 114.024 117.669C114.267 117.166 114.601 116.844 115.027 116.701Z" fill="#0C90C7" fill-opacity="0.855"/>
<path d="M222.41 125.456C228.276 138.727 240.911 145.392 255.195 142.491C261.65 141.176 266.734 137.887 270.436 132.618C272.265 130.018 274.076 129.308 276.783 131.615C280.352 134.646 284.031 137.702 287.821 140.785C293.59 145.492 290.881 149.281 286.443 153.267C257.778 179.011 211.961 169.609 197.633 132.974L197.472 129.716C197.454 129.427 197.586 129.239 197.864 129.157C197.994 129.116 198.131 129.111 198.271 129.147C198.634 129.242 198.837 129.107 198.884 128.737C198.913 128.503 199.047 128.366 199.283 128.331C201.046 128.099 202.843 127.881 204.674 127.674C205.834 127.543 206.98 127.26 208.117 126.822C209.099 126.447 210.166 126.324 211.312 126.447C211.605 126.48 211.883 126.437 212.155 126.324C213.904 125.591 215.491 124.545 216.924 123.182C217.1 123.01 217.316 122.917 217.571 122.897C217.987 122.868 218.23 123.019 218.309 123.35C218.375 123.641 218.54 123.718 218.807 123.581C219.06 123.451 219.274 123.284 219.445 123.083C219.58 122.924 219.661 122.707 219.685 122.426C219.763 121.457 219.793 120.485 219.781 119.514C219.781 119.427 219.827 119.383 219.915 119.383C220.005 119.383 220.05 119.427 220.058 119.514C220.063 120.273 220.067 121.038 220.067 121.806C220.06 122.013 220.092 122.214 220.162 122.409C220.27 122.741 220.412 122.902 220.59 122.89C220.866 122.871 220.991 123.008 220.962 123.297C220.815 124.581 221.298 125.3 222.41 125.456Z" fill="#011524"/>
<path d="M78.232 126.564C81.97 136.632 85.947 146.613 90.162 156.509C90.837 158.089 90.63 159.917 89.541 161.996C88.014 164.912 85.583 166.45 82.252 166.611C76.571 166.884 72.894 166.851 71.225 166.512C68.36 165.934 66.443 162.775 65.465 160.28C64.25 157.174 63.043 153.881 61.843 150.401C61.659 149.859 61.15 149.492 60.575 149.486L29.324 149.388C28.927 149.388 28.577 149.643 28.455 150.018C27.242 153.743 25.819 157.464 24.183 161.185C21.336 167.666 15.245 167.019 9.35101 166.957C2.81701 166.894 -0.830991 162.926 0.774009 156.232C1.33701 153.878 2.91201 149.515 5.49601 143.148L6.02001 143.104C6.29901 143.073 6.46301 142.921 6.51001 142.64C6.80101 140.86 7.39601 139.076 8.29501 137.289C8.42901 137.019 8.64301 136.841 8.93301 136.764C9.10401 136.722 9.25201 136.639 9.37701 136.517C9.53701 136.356 9.66901 136.375 9.77701 136.568L10.15 137.252C10.28 137.49 10.469 137.549 10.719 137.43C11.546 137.029 12.34 136.592 13.097 136.124C13.262 136.017 13.401 136.005 13.514 136.079C13.644 136.17 13.783 136.182 13.93 136.117C15.281 135.513 16.704 134.865 18.201 134.172C19.089 133.764 20.005 133.513 20.953 133.417C21.616 133.358 22.259 133.193 22.889 132.921C23.439 132.688 24.005 132.534 24.584 132.458C26.66 132.187 28.771 131.818 30.914 131.358C32.254 131.075 33.266 129.884 34.376 129.066C34.565 128.926 34.729 128.951 34.872 129.147C34.933 129.218 34.965 129.304 34.971 129.407C34.981 129.622 35.039 129.636 35.139 129.439C35.306 129.133 35.51 128.871 35.753 128.659C35.977 128.476 36.266 128.388 36.614 128.393C39.756 128.452 42.774 128.461 45.668 128.419C47.36 128.395 48.99 128.681 50.559 129.271C52.412 129.97 53.79 129.518 54.688 127.914C54.805 127.697 54.99 127.58 55.238 127.568C58.262 127.392 61.094 127.263 63.735 127.186C64.644 127.155 65.626 127.371 66.68 127.834C67.046 127.993 67.459 127.995 67.827 127.842C69.416 127.181 70.909 126.324 72.302 125.276C72.59 125.061 72.706 124.68 72.585 124.335C72.382 123.785 72.564 123.383 73.126 123.129C73.375 123.015 73.653 123.215 73.625 123.487C73.625 123.493 73.624 123.503 73.622 123.511C73.481 124.328 73.774 124.85 74.502 125.083C75.284 125.329 75.976 125.992 76.58 127.062C76.768 127.393 76.803 127.378 76.686 127.016C76.643 126.892 76.66 126.758 76.741 126.617C76.849 126.423 77.129 126.416 77.244 126.608C77.333 126.743 77.37 126.89 77.352 127.043C77.355 127.069 77.331 127.082 77.309 127.065C77.299 127.058 77.292 127.048 77.29 127.034C77.297 126.935 77.304 126.827 77.315 126.714C77.352 126.471 77.487 126.382 77.725 126.44L78.232 126.564Z" fill="#011524"/>
<path d="M97.78 142.731C97.968 142.252 98.042 141.741 98 141.204C97.976 140.961 98.077 140.788 98.303 140.687L98.569 140.572C98.693 140.519 98.781 140.552 98.827 140.671C99.004 141.091 99.348 141.24 99.856 141.125C100.13 141.064 100.371 140.949 100.585 140.778C101.684 139.914 102.963 139.372 104.418 139.153C105.726 138.957 106.852 138.361 107.793 137.368C107.963 137.178 108.177 137.056 108.432 137.005C109.427 136.779 110.435 136.647 111.457 136.605C112.141 136.575 112.793 136.486 113.422 136.338C114.19 136.155 114.928 136.192 115.633 136.445C115.907 136.546 116.193 136.575 116.484 136.533C117.08 136.462 117.686 136.493 118.295 136.621C118.581 136.689 118.842 136.636 119.085 136.471C119.718 136.045 120.438 135.809 121.251 135.762C121.54 135.743 121.792 135.836 122.006 136.045L124.189 138.149C124.39 138.35 124.635 138.469 124.928 138.503C125.778 138.623 126.549 138.999 127.234 139.632C127.862 140.214 128.564 140.612 129.338 140.839C130.439 141.159 131.498 141.297 132.517 141.255C143.48 145.438 155.767 143.13 163.447 134.225C164.858 132.592 167.201 128.686 169.97 130.834C174.148 134.066 178.591 137.977 183.296 142.57C187.245 146.424 183.909 150.878 180.702 153.701C176.905 157.051 172.789 159.878 168.364 162.181C152.81 170.259 133.92 169.585 118.41 161.755C110.034 157.524 103.16 151.182 97.78 142.731Z" fill="#046AAA" fill-opacity="0.847"/>
<path d="M339.406 15.285C338.338 15.697 337.208 15.866 336.02 15.786C334.621 15.692 333.598 15.685 332.954 15.766C330.644 16.06 328.742 15.944 326.688 16.072C326.582 16.08 325.837 16.071 324.454 16.04C323.737 16.023 322.985 16.153 322.197 16.43C322.523 13.696 321.696 11.719 319.716 10.494C315.877 8.109 312.54 8.66 309.709 12.147C309.747 11.935 309.37 11.834 308.574 11.847C308.253 11.856 307.876 11.923 307.443 12.045C305.577 12.57 303.668 12.717 301.717 12.489C300.797 12.38 298.752 12.233 295.58 12.052C295.401 12.039 295.039 12.06 294.497 12.116C294.04 12.162 293.676 12.091 293.403 11.899C295.97 8.018 299.513 4.886 303.678 2.813C309.812 -0.238995 316.888 -0.790997 323.419 1.274C330.472 3.501 336.271 8.582 339.406 15.285Z" fill="#2FBEE3"/>
<path d="M322.197 16.43C321.284 19.393 319.334 21.185 316.344 21.803C312.458 21.906 309.985 20.204 308.918 16.702C308.547 15.471 308.809 13.953 309.709 12.147C312.54 8.66001 315.877 8.10901 319.716 10.494C321.696 11.719 322.523 13.696 322.197 16.43Z" fill="white"/>
<path d="M309.709 12.147C308.809 13.953 308.547 15.471 308.918 16.702C309.985 20.204 312.458 21.906 316.344 21.803C317.174 22 318.182 22.014 319.365 21.849C319.522 21.827 319.608 21.894 319.62 22.045C319.645 22.275 319.775 22.387 320.007 22.383L322.228 22.352C322.389 22.352 322.545 22.378 322.693 22.433C322.892 22.506 323.112 22.535 323.348 22.522C329.76 22.154 335.68 21.334 341.104 20.06C341.763 22.683 342.013 25.391 341.848 28.09C341.619 28.921 340.959 29.243 339.868 29.056C339.657 29.023 339.456 29.049 339.26 29.133C338.437 29.49 337.59 29.694 336.721 29.749C335.373 29.838 334.507 29.927 334.131 30.016C332.702 30.353 331.173 30.665 329.545 30.954C329.137 31.024 328.752 31.134 328.393 31.283C328.211 31.36 328.026 31.367 327.84 31.308C327.304 31.142 326.748 31.185 326.166 31.436C326.108 31.46 326.044 31.473 325.974 31.473C325.856 31.469 325.751 31.444 325.656 31.398C325.519 31.329 325.367 31.301 325.206 31.308C321.295 31.55 318.343 31.613 316.351 31.498C314.569 31.398 311.386 31.021 306.801 30.374C305.859 30.24 305.121 29.85 304.156 29.908C303.06 29.977 301.948 29.891 300.821 29.655C300.383 29.561 299.972 29.627 299.586 29.85C299.46 29.927 299.37 29.896 299.319 29.756L299.255 29.564C299.2 29.42 299.096 29.35 298.944 29.357C296.204 29.435 293.473 29.389 290.749 29.215C290.279 29.186 289.786 29.499 289.267 30.158C288.375 23.77 289.844 17.279 293.403 11.899C293.676 12.091 294.04 12.162 294.497 12.116C295.039 12.06 295.401 12.039 295.58 12.052C298.752 12.233 300.797 12.38 301.717 12.489C303.668 12.717 305.577 12.57 307.443 12.045C307.876 11.923 308.253 11.856 308.574 11.847C309.37 11.834 309.747 11.935 309.709 12.147Z" fill="#0C90C7" fill-opacity="0.855"/>
<path d="M339.406 15.285C340.125 16.813 340.693 18.416 341.104 20.06C335.68 21.334 329.76 22.154 323.348 22.522C323.112 22.535 322.892 22.506 322.693 22.433C322.545 22.378 322.389 22.352 322.228 22.352L320.007 22.383C319.775 22.387 319.645 22.275 319.62 22.045C319.608 21.894 319.522 21.827 319.365 21.849C318.182 22.014 317.174 22 316.344 21.803C319.334 21.185 321.284 19.393 322.197 16.43C322.985 16.153 323.737 16.023 324.454 16.04C325.837 16.071 326.582 16.08 326.688 16.072C328.742 15.944 330.644 16.06 332.954 15.766C333.598 15.685 334.621 15.692 336.02 15.786C337.208 15.866 338.338 15.697 339.406 15.285Z" fill="#2FBEE3"/>
<path d="M341.848 28.09C341.489 33.996 339.161 39.611 335.232 44.037C330.2 49.706 322.975 52.942 315.39 52.926C310.981 52.913 306.647 51.801 302.78 49.688C295.445 45.68 290.433 38.44 289.267 30.158C289.786 29.499 290.279 29.186 290.749 29.215C293.473 29.389 296.204 29.435 298.944 29.357C299.096 29.35 299.2 29.42 299.255 29.564L299.319 29.756C299.37 29.896 299.46 29.927 299.586 29.85C299.972 29.627 300.383 29.561 300.821 29.655C301.948 29.891 303.06 29.977 304.156 29.908C305.121 29.85 305.859 30.24 306.801 30.374C311.386 31.021 314.569 31.398 316.351 31.498C318.343 31.613 321.295 31.55 325.206 31.308C325.367 31.301 325.519 31.329 325.656 31.398C325.751 31.444 325.856 31.469 325.974 31.473C326.044 31.473 326.108 31.46 326.166 31.436C326.748 31.185 327.304 31.142 327.84 31.308C328.026 31.367 328.211 31.36 328.393 31.283C328.752 31.134 329.137 31.024 329.545 30.954C331.173 30.665 332.702 30.353 334.131 30.016C334.507 29.927 335.373 29.838 336.721 29.749C337.59 29.694 338.437 29.49 339.26 29.133C339.456 29.049 339.657 29.023 339.868 29.056C340.959 29.243 341.619 28.921 341.848 28.09Z" fill="#046AAA" fill-opacity="0.847"/>
</svg>
